<svg xmlns="http://www.w3.org/2000/svg" width="1024" height="1024" viewBox="0 0 1024 1024">
<g>
<path d="M 0.00 0.00 L 1024.00 0.00 L 1024.00 1024.00 L 0.00 1024.00 ZM 558.53 636.21 C560.53,636.66 562.32,636.51 567.22,635.44 C570.36,634.76 575.23,629.19 583.32,617.00 C586.42,612.33 590.77,605.92 592.98,602.77 C595.19,599.63 597.00,596.76 597.00,596.41 C597.00,596.05 598.24,594.34 599.75,592.59 C601.26,590.85 604.08,586.64 606.00,583.25 C607.92,579.86 610.14,576.83 610.91,576.51 C611.69,576.20 613.51,577.08 614.97,578.47 C616.42,579.86 617.97,581.00 618.41,581.00 C618.85,581.00 621.37,582.69 624.01,584.75 C626.64,586.81 630.29,589.40 632.10,590.50 C633.92,591.60 636.21,592.99 637.19,593.59 C638.18,594.19 639.78,595.35 640.74,596.17 C641.71,596.99 644.64,598.88 647.25,600.37 C649.86,601.86 652.00,603.47 652.00,603.94 C652.00,604.42 653.35,605.27 655.00,605.85 C656.65,606.43 658.00,607.39 658.00,608.00 C658.00,608.61 659.62,609.78 661.60,610.61 C663.58,611.43 666.14,612.99 667.29,614.06 C668.44,615.13 669.97,616.00 670.70,616.00 C671.43,616.00 672.80,616.94 673.76,618.08 C674.72,619.23 677.08,620.98 679.00,621.99 C680.92,622.99 683.82,625.21 685.44,626.91 C687.05,628.61 689.05,630.00 689.88,630.00 C690.71,630.00 692.54,631.05 693.95,632.33 C698.73,636.68 706.82,637.65 713.00,634.60 C714.38,633.92 715.39,632.83 715.25,632.18 C715.11,631.53 715.55,631.11 716.22,631.25 C716.89,631.39 718.16,630.09 719.04,628.36 C719.92,626.63 721.85,623.78 723.32,622.03 C724.79,620.28 726.00,618.50 726.00,618.08 C726.00,617.66 727.15,616.00 728.56,614.41 C729.97,612.81 732.01,609.92 733.10,608.00 C735.10,604.47 738.43,599.49 741.71,595.13 C743.96,592.14 745.90,589.30 748.69,584.93 C749.90,583.05 751.26,581.05 751.72,580.50 C753.32,578.59 759.01,569.88 760.41,567.20 C761.18,565.71 762.98,563.15 764.40,561.50 C765.83,559.85 767.00,558.02 767.00,557.42 C767.00,556.83 768.12,555.29 769.50,554.00 C770.88,552.71 772.00,551.09 772.00,550.40 C772.00,549.72 773.12,547.82 774.50,546.18 C775.88,544.55 777.02,542.83 777.05,542.36 C777.08,541.89 779.10,538.80 781.53,535.50 C783.97,532.20 786.82,527.92 787.88,526.00 C788.93,524.08 790.74,521.64 791.89,520.60 C793.05,519.55 794.00,518.12 794.00,517.42 C794.00,516.72 795.02,514.88 796.28,513.33 C797.53,511.77 799.18,509.26 799.94,507.75 C800.71,506.24 801.70,505.00 802.14,505.00 C802.59,505.00 803.70,503.54 804.62,501.75 C805.54,499.96 807.80,496.65 809.65,494.40 C811.49,492.14 813.02,489.89 813.04,489.40 C813.06,488.90 814.41,486.94 816.04,485.04 C817.67,483.13 819.00,481.07 819.00,480.46 C819.00,479.85 820.12,478.29 821.50,477.00 C822.88,475.71 824.00,474.11 824.00,473.45 C824.00,472.79 824.60,471.75 825.32,471.15 C827.00,469.76 826.84,458.44 825.10,455.19 C823.99,453.12 817.08,447.94 810.15,444.00 C808.70,443.17 804.59,440.35 801.01,437.71 C797.43,435.08 793.49,432.67 792.25,432.36 C791.01,432.04 790.00,431.40 790.00,430.93 C790.00,430.47 788.04,428.94 785.65,427.53 C783.25,426.13 780.49,424.10 779.51,423.01 C778.53,421.93 777.42,421.24 777.05,421.47 C776.67,421.71 774.59,420.35 772.43,418.47 C770.27,416.58 767.10,414.36 765.39,413.54 C763.68,412.71 761.69,411.33 760.97,410.46 C758.08,406.99 747.86,404.40 743.50,406.04 C740.42,407.20 736.26,411.15 732.72,416.28 C730.95,418.85 726.35,425.50 722.50,431.06 C718.65,436.63 714.73,442.38 713.78,443.84 C712.83,445.30 711.40,447.40 710.59,448.50 C705.55,455.34 703.90,457.77 702.78,460.00 C702.09,461.38 700.98,462.95 700.31,463.50 C699.63,464.05 698.49,465.62 697.77,467.00 C697.05,468.38 693.32,474.15 689.48,479.84 C685.64,485.53 681.88,491.38 681.12,492.84 C680.36,494.30 678.84,496.50 677.73,497.71 C676.63,498.93 675.22,500.75 674.61,501.76 C674.00,502.77 672.60,505.08 671.50,506.89 C670.40,508.71 668.38,511.70 667.00,513.55 C665.62,515.40 663.47,518.40 662.22,520.21 C660.97,522.02 658.83,525.08 657.48,527.00 C656.12,528.92 654.37,531.85 653.59,533.50 C652.28,536.23 648.45,541.00 647.56,541.00 C646.61,541.00 639.00,536.55 639.00,536.00 C639.00,534.72 643.07,527.37 645.91,523.50 C647.53,521.30 650.09,517.50 651.59,515.05 C654.08,510.99 657.32,506.43 663.26,498.60 C664.48,497.00 665.92,494.90 666.48,493.93 C667.04,492.96 670.76,487.39 674.75,481.56 C678.74,475.72 682.00,470.79 682.00,470.59 C682.00,469.76 690.12,458.14 691.50,457.00 C692.33,456.31 693.00,455.17 693.00,454.45 C693.00,453.73 693.59,452.55 694.31,451.82 C695.86,450.25 706.78,434.08 709.18,429.79 C710.10,428.14 711.79,425.79 712.93,424.58 C714.07,423.36 715.00,421.92 715.00,421.36 C715.00,420.80 716.12,419.29 717.50,418.00 C718.88,416.71 720.00,415.07 720.00,414.36 C720.00,413.65 721.35,411.53 723.00,409.65 C724.65,407.77 726.00,405.56 726.00,404.74 C726.00,403.92 726.72,402.65 727.60,401.92 C728.48,401.18 730.72,398.32 732.58,395.54 C734.43,392.77 738.20,387.12 740.96,383.00 C743.72,378.88 746.54,374.85 747.24,374.06 C747.93,373.26 749.40,371.15 750.50,369.36 C751.60,367.57 754.41,363.39 756.75,360.06 C759.09,356.74 761.00,353.64 761.00,353.17 C761.00,352.70 761.87,351.52 762.93,350.56 C763.99,349.60 765.59,347.40 766.49,345.66 C767.98,342.76 771.79,336.93 773.78,334.50 C774.23,333.95 778.08,328.23 782.33,321.79 C789.58,310.81 792.65,304.51 792.45,301.00 C792.28,297.92 790.73,292.45 789.65,291.11 C788.23,289.36 780.31,283.98 771.07,278.50 C769.22,277.40 766.25,275.26 764.47,273.75 C762.69,272.24 760.87,271.00 760.43,271.00 C759.99,271.00 757.49,269.20 754.88,267.00 C752.28,264.80 749.69,263.00 749.15,263.00 C748.60,263.00 746.88,261.99 745.32,260.75 C742.35,258.39 740.39,257.08 735.62,254.22 C734.04,253.27 731.40,251.40 729.75,250.05 C726.15,247.12 717.40,242.93 716.58,243.75 C716.26,244.07 716.00,243.81 716.00,243.17 C716.00,242.52 715.33,242.00 714.50,242.00 C713.67,242.00 713.00,242.50 713.00,243.11 C713.00,243.72 712.36,243.97 711.58,243.67 C710.80,243.37 709.17,243.99 707.95,245.04 C706.74,246.10 705.34,246.71 704.85,246.40 C704.35,246.10 704.07,246.45 704.23,247.18 C704.38,247.90 703.96,248.39 703.30,248.27 C702.63,248.14 700.62,250.50 698.81,253.52 C697.01,256.53 695.20,259.00 694.79,259.00 C694.38,259.00 693.30,260.46 692.39,262.25 C691.47,264.04 689.77,266.68 688.61,268.12 C687.45,269.57 685.60,272.25 684.50,274.08 C681.65,278.81 680.82,280.09 678.00,284.02 C675.35,287.70 674.01,289.74 671.22,294.33 C670.27,295.89 668.27,298.59 666.77,300.33 C665.26,302.08 664.02,304.03 664.02,304.68 C664.01,305.33 663.41,306.45 662.68,307.18 C661.96,307.91 658.38,313.00 654.71,318.50 C651.05,324.00 646.71,330.30 645.07,332.50 C643.42,334.70 641.20,338.08 640.14,340.00 C639.08,341.92 637.26,344.36 636.11,345.40 C634.95,346.45 634.00,347.72 634.00,348.22 C634.00,348.72 632.99,350.57 631.75,352.32 C630.51,354.07 629.05,356.21 628.50,357.08 C627.95,357.94 625.36,361.85 622.75,365.75 C620.14,369.66 618.00,373.16 618.00,373.54 C618.00,373.92 616.76,375.72 615.25,377.53 C611.64,381.85 609.13,385.46 602.76,395.49 C602.07,396.59 600.49,398.76 599.25,400.32 C598.01,401.88 597.00,403.70 597.00,404.36 C597.00,405.03 595.67,407.13 594.04,409.04 C592.41,410.94 591.06,412.98 591.04,413.56 C591.02,414.15 589.65,415.92 588.00,417.50 C586.35,419.08 585.00,421.02 585.00,421.81 C585.00,422.59 583.65,424.77 582.00,426.65 C580.35,428.53 579.00,430.67 579.00,431.41 C579.00,432.15 578.29,433.34 577.43,434.06 C576.57,434.77 573.70,438.54 571.07,442.43 C568.44,446.32 564.42,452.20 562.14,455.50 C553.99,467.29 544.49,481.39 544.00,482.44 C543.72,483.02 541.69,486.14 539.50,489.37 C537.30,492.60 534.73,496.42 533.78,497.87 C532.84,499.32 531.36,501.40 530.50,502.50 C528.28,505.32 524.80,510.52 520.47,517.50 C514.29,527.45 511.68,531.35 509.03,534.60 C506.67,537.50 504.63,540.66 501.00,547.04 C500.17,548.49 498.46,550.99 497.19,552.59 C491.78,559.42 484.00,571.14 484.00,572.47 C484.00,573.26 483.53,574.94 482.95,576.21 C481.44,579.52 485.03,587.17 489.75,590.73 C491.78,592.25 494.24,594.29 495.22,595.25 C496.20,596.21 497.59,597.00 498.31,597.00 C499.04,597.00 500.92,598.35 502.50,600.00 C504.08,601.65 506.11,603.00 507.01,603.00 C507.91,603.00 509.71,604.12 511.00,605.50 C512.29,606.88 513.77,608.00 514.29,608.00 C514.81,608.00 516.77,609.35 518.65,611.00 C520.53,612.65 522.63,614.00 523.31,614.00 C524.00,614.00 526.10,615.41 527.99,617.14 C529.88,618.87 532.60,621.01 534.03,621.89 C539.51,625.29 543.54,627.91 544.50,628.72 C546.45,630.36 556.59,635.78 558.53,636.21 ZM 270.56 634.47 C276.01,638.59 284.46,634.13 291.35,623.50 C292.78,621.30 296.66,615.67 299.96,611.00 C303.27,606.33 306.62,601.14 307.41,599.48 C308.19,597.82 309.77,595.61 310.92,594.57 C312.06,593.54 313.00,592.30 313.00,591.82 C313.00,590.98 317.06,584.83 321.93,578.29 L 324.32 575.08 L 327.41 576.79 C329.11,577.73 331.98,579.74 333.78,581.25 C335.59,582.76 337.74,584.00 338.57,584.00 C339.39,584.00 340.32,584.67 340.64,585.50 C340.95,586.33 341.84,587.00 342.61,587.00 C343.37,587.00 344.00,587.45 344.00,588.00 C344.00,588.55 344.50,589.00 345.12,589.00 C345.73,589.00 347.77,590.35 349.65,592.00 C351.53,593.65 353.65,595.00 354.36,595.00 C355.07,595.00 356.71,596.12 358.00,597.50 C359.29,598.88 360.96,600.00 361.72,600.00 C363.15,600.00 373.39,607.20 374.50,608.99 C374.85,609.56 376.60,610.64 378.39,611.39 C380.18,612.14 383.25,614.16 385.20,615.87 C387.16,617.59 389.20,619.00 389.73,619.00 C390.26,619.00 391.48,619.87 392.44,620.93 C393.40,621.99 395.79,623.62 397.75,624.55 C399.71,625.48 404.28,628.23 407.91,630.67 C411.53,633.10 415.49,635.34 416.70,635.64 C419.64,636.38 429.94,631.29 430.97,628.59 C431.41,627.44 432.72,625.64 433.89,624.60 C435.05,623.55 436.00,622.28 436.00,621.78 C436.00,621.28 437.12,619.39 438.50,617.59 C439.88,615.79 441.00,613.96 441.00,613.54 C441.00,613.11 442.35,611.23 444.00,609.35 C445.65,607.47 447.00,605.33 447.00,604.59 C447.00,603.85 447.67,602.69 448.49,602.01 C450.14,600.64 458.00,589.39 458.00,588.39 C458.00,588.05 459.24,586.31 460.75,584.53 C462.26,582.75 464.27,579.99 465.22,578.40 C467.79,574.07 469.15,572.00 473.00,566.50 C474.93,563.75 476.95,560.79 477.50,559.92 C478.48,558.36 479.50,556.87 492.48,538.02 C496.06,532.81 499.00,528.05 499.00,527.45 C499.00,526.84 500.12,525.29 501.50,524.00 C502.88,522.71 504.00,521.12 504.00,520.48 C504.00,519.84 504.95,518.45 506.11,517.40 C507.27,516.36 508.96,514.13 509.86,512.45 C513.08,506.46 515.54,502.66 518.25,499.47 C519.76,497.69 521.00,495.91 521.00,495.51 C521.00,495.11 522.12,493.45 523.50,491.82 C524.88,490.18 526.00,488.29 526.00,487.61 C526.00,486.93 527.35,485.08 529.00,483.50 C530.65,481.92 532.00,479.89 532.00,478.99 C532.00,478.09 533.12,476.29 534.50,475.00 C535.88,473.71 537.00,471.92 537.00,471.02 C537.00,470.12 537.66,468.51 538.47,467.44 C540.48,464.78 540.36,462.37 537.96,457.42 C536.01,453.39 527.95,446.00 525.51,446.00 C524.87,446.00 523.29,444.88 522.00,443.50 C520.71,442.12 519.16,441.00 518.55,441.00 C517.35,441.00 505.87,432.84 502.03,429.25 C500.71,428.01 499.03,427.00 498.31,427.00 C497.59,427.00 496.08,426.08 494.95,424.95 C493.02,423.02 490.14,421.11 483.67,417.46 C482.12,416.59 478.88,414.37 476.47,412.53 C474.07,410.69 469.54,407.98 466.42,406.50 C460.82,403.85 460.68,403.84 456.62,405.51 C450.04,408.22 449.62,408.51 447.24,412.09 C446.00,413.97 443.86,416.83 442.49,418.47 C441.12,420.10 440.00,421.94 440.00,422.56 C440.00,423.18 438.88,425.00 437.50,426.59 C436.13,428.19 434.98,429.95 434.96,430.50 C434.94,431.05 433.59,433.06 431.96,434.96 C430.33,436.87 429.00,438.93 429.00,439.54 C429.00,440.15 427.88,441.71 426.50,443.00 C425.12,444.29 424.00,445.86 424.00,446.49 C424.00,447.12 422.65,449.15 421.00,451.00 C419.35,452.85 418.00,454.78 418.00,455.29 C418.00,455.79 416.99,457.46 415.75,458.98 C414.51,460.50 412.60,463.25 411.50,465.08 C408.41,470.21 407.70,471.27 404.75,475.11 C403.24,477.08 402.00,479.04 402.00,479.46 C402.00,479.89 400.65,481.77 399.00,483.65 C397.35,485.53 396.00,487.67 396.00,488.41 C396.00,489.15 395.29,490.34 394.43,491.06 C393.57,491.77 390.75,495.57 388.18,499.49 C385.61,503.41 382.92,507.50 382.22,508.56 C381.52,509.63 380.17,511.80 379.22,513.40 C378.27,514.99 376.38,517.69 375.00,519.40 C372.46,522.56 371.29,524.27 368.22,529.35 C367.27,530.91 365.29,533.75 363.81,535.65 C362.34,537.56 360.97,539.60 360.77,540.20 C360.52,540.95 359.65,540.90 357.95,540.01 C352.21,537.04 350.43,533.54 353.41,531.08 C354.18,530.43 355.51,528.47 356.37,526.70 C357.22,524.94 360.63,519.90 363.95,515.50 C367.27,511.10 371.61,504.26 373.59,500.29 L 377.20 493.08 L 375.45 488.52 C373.59,483.64 369.26,478.75 364.70,476.36 C363.15,475.55 360.82,473.96 359.51,472.82 C357.12,470.74 356.16,470.13 349.88,466.61 C348.02,465.57 345.18,463.43 343.56,461.86 C341.94,460.29 339.82,459.00 338.85,459.00 C337.87,459.00 336.61,458.14 336.04,457.08 C335.48,456.02 333.44,454.64 331.51,454.00 C329.58,453.37 328.00,452.48 328.00,452.04 C328.00,451.59 326.32,450.43 324.27,449.46 C322.22,448.49 319.71,446.63 318.70,445.34 C317.68,444.06 316.32,443.00 315.66,443.00 C315.00,443.00 312.29,441.20 309.62,439.00 C306.91,436.76 303.62,434.95 302.14,434.88 C291.69,434.43 286.56,436.32 284.12,441.55 C283.37,443.17 281.72,445.62 280.47,447.00 C279.21,448.38 277.36,450.89 276.34,452.59 C275.33,454.29 273.15,457.61 271.50,459.97 C269.85,462.33 267.38,465.98 266.00,468.06 C264.62,470.15 261.69,474.48 259.47,477.68 C257.26,480.88 254.91,484.74 254.25,486.25 C253.58,487.76 252.64,489.00 252.14,489.00 C251.65,489.00 250.70,490.31 250.04,491.90 C249.38,493.50 247.75,495.83 246.42,497.08 C245.09,498.33 244.00,500.12 244.00,501.05 C244.00,501.99 243.33,503.31 242.51,503.99 C240.79,505.42 233.02,516.60 232.96,517.74 C232.94,518.16 231.59,520.06 229.96,521.96 C228.33,523.87 227.00,525.93 227.00,526.54 C227.00,527.15 225.88,528.71 224.50,530.00 C223.12,531.29 222.00,532.86 222.00,533.49 C222.00,534.12 220.65,536.15 219.00,538.00 C217.35,539.85 216.00,541.77 216.00,542.27 C216.00,542.77 215.07,544.38 213.92,545.84 C212.78,547.30 209.83,551.65 207.36,555.50 C204.89,559.35 202.01,563.42 200.95,564.55 C198.59,567.06 196.18,574.72 196.70,578.05 C196.91,579.40 197.20,581.30 197.35,582.27 C197.68,584.38 204.91,592.00 206.58,592.00 C207.23,592.00 208.37,592.74 209.13,593.65 C209.88,594.56 211.62,595.81 213.00,596.43 C215.80,597.68 223.47,602.81 232.50,609.48 C235.80,611.91 239.71,614.60 241.20,615.45 C242.68,616.30 245.11,618.12 246.59,619.50 C248.08,620.87 249.90,622.00 250.65,622.00 C251.39,622.00 252.00,622.41 252.00,622.91 C252.00,623.41 253.95,624.77 256.33,625.92 C258.72,627.07 261.72,629.14 263.01,630.51 C264.30,631.88 266.08,633.00 266.98,633.00 C267.88,633.00 269.49,633.66 270.56,634.47 ZM 378.13 470.77 C384.42,473.89 391.59,472.45 395.99,467.18 C400.71,461.54 403.47,457.65 408.50,449.55 C409.60,447.78 411.85,444.40 413.50,442.05 C415.15,439.69 417.40,436.32 418.50,434.54 C422.16,428.65 426.47,422.53 428.75,420.01 C429.99,418.64 431.00,416.99 431.00,416.34 C431.00,415.69 432.01,413.88 433.25,412.32 C434.49,410.76 435.95,408.78 436.50,407.92 C442.16,399.05 444.06,396.25 445.38,394.78 C446.83,393.18 448.87,390.25 455.00,380.94 C456.38,378.85 459.41,374.41 461.75,371.08 C464.09,367.75 466.02,364.68 466.04,364.26 C466.06,363.84 467.41,361.94 469.04,360.04 C470.67,358.13 472.00,356.27 472.00,355.89 C472.00,355.51 473.83,352.57 476.06,349.35 C478.30,346.13 481.04,342.04 482.16,340.25 C483.28,338.46 484.39,337.00 484.62,337.00 C486.08,337.00 493.00,342.27 493.00,343.38 C493.00,344.12 491.65,346.42 490.00,348.50 C488.35,350.58 487.00,352.62 487.00,353.04 C487.00,354.08 480.77,363.26 478.14,366.08 C476.96,367.34 476.00,368.93 476.00,369.61 C476.00,370.29 474.95,372.12 473.66,373.67 C471.22,376.62 468.59,382.99 469.80,383.02 C470.19,383.02 469.85,383.44 469.06,383.94 C467.83,384.72 467.90,385.47 469.49,389.17 C471.50,393.83 477.32,400.66 479.29,400.68 C480.94,400.70 488.95,406.23 491.92,409.41 C493.26,410.83 494.99,412.00 495.77,412.00 C496.55,412.00 499.24,413.80 501.74,416.00 C504.24,418.20 506.69,420.00 507.18,420.00 C507.68,420.00 509.30,421.12 510.78,422.50 C512.27,423.88 514.02,425.00 514.68,425.00 C515.34,425.00 517.35,426.35 519.16,428.00 C520.97,429.65 522.95,431.00 523.58,431.00 C524.20,431.00 525.92,432.12 527.41,433.50 C528.89,434.88 530.67,436.00 531.36,436.00 C532.06,436.00 533.91,437.35 535.49,438.99 C537.07,440.63 538.58,441.76 538.85,441.49 C539.12,441.21 540.45,441.72 541.81,442.61 C544.71,444.51 549.91,444.09 555.37,441.49 C558.96,439.79 564.94,431.49 580.94,406.03 C583.38,402.14 586.20,398.23 587.19,397.33 C588.19,396.43 589.00,395.17 589.00,394.53 C589.00,393.88 590.35,391.85 592.00,390.00 C593.65,388.15 595.00,386.30 595.00,385.89 C595.00,385.48 596.91,382.35 599.25,378.94 C601.59,375.53 603.95,372.01 604.50,371.12 C605.05,370.23 606.74,368.03 608.25,366.22 C609.76,364.41 611.00,362.52 611.00,362.03 C611.00,361.53 613.01,358.29 615.46,354.81 C625.28,340.91 633.58,328.75 635.03,326.15 C635.86,324.64 637.55,322.32 638.78,321.01 C640.00,319.70 641.00,318.11 641.00,317.49 C641.00,316.86 642.13,315.29 643.51,313.99 C644.89,312.69 646.54,309.80 647.18,307.57 C648.63,302.45 649.05,295.00 647.88,295.00 C647.40,295.00 647.00,294.33 647.00,293.50 C647.00,292.67 646.45,292.00 645.79,292.00 C645.12,292.00 643.43,290.86 642.04,289.47 C638.11,285.55 632.80,281.43 629.50,279.74 C627.85,278.90 625.64,277.26 624.59,276.10 C623.55,274.95 622.10,274.00 621.38,274.00 C620.66,274.00 618.50,272.62 616.59,270.94 C614.67,269.26 612.82,267.96 612.48,268.04 C611.76,268.23 602.52,261.85 597.56,257.75 C595.73,256.24 593.80,255.00 593.27,255.00 C592.74,255.00 591.45,254.04 590.40,252.86 C589.36,251.69 587.15,250.09 585.50,249.31 C583.85,248.53 580.74,246.83 578.59,245.54 C574.58,243.12 572.00,243.15 572.00,245.61 C572.00,246.37 571.10,247.00 570.00,247.00 C568.90,247.00 568.00,246.36 568.00,245.58 C568.00,243.67 565.93,243.06 563.50,244.26 C560.69,245.64 555.00,251.17 555.00,252.52 C555.00,253.13 553.65,255.15 552.00,257.00 C550.35,258.85 549.00,260.78 549.00,261.29 C549.00,261.79 547.99,263.46 546.75,264.98 C545.51,266.50 543.71,269.04 542.74,270.62 C541.78,272.21 538.96,276.20 536.49,279.50 C534.01,282.80 531.35,286.86 530.58,288.52 C529.80,290.18 528.23,292.39 527.08,293.43 C525.94,294.46 525.00,295.83 525.00,296.47 C525.00,297.10 523.71,298.86 522.14,300.36 L 519.29 303.10 L 514.63 299.55 C512.08,297.60 509.60,296.00 509.13,296.00 C508.66,296.00 506.31,294.31 503.89,292.25 C498.39,287.55 490.47,282.00 489.26,282.00 C488.76,282.00 487.29,280.88 486.00,279.50 C484.71,278.12 483.07,277.00 482.36,277.00 C481.65,277.00 479.53,275.65 477.65,274.00 C475.77,272.35 473.81,271.00 473.29,271.00 C472.77,271.00 471.29,269.88 470.00,268.50 C468.71,267.12 466.94,265.98 466.08,265.97 C465.21,265.95 461.40,263.58 457.62,260.72 C453.83,257.85 449.87,254.99 448.81,254.38 C447.75,253.76 445.73,252.26 444.34,251.04 C439.04,246.44 432.75,243.84 427.00,243.88 C420.84,243.92 419.09,244.19 417.19,245.37 C415.67,246.33 407.00,258.04 407.00,259.16 C407.00,260.09 403.36,265.50 399.16,270.80 C397.42,272.99 396.00,275.11 396.00,275.50 C396.00,275.89 394.88,277.55 393.50,279.18 C392.12,280.82 391.00,282.72 391.00,283.40 C391.00,284.09 389.88,285.71 388.50,287.00 C387.12,288.29 386.00,289.80 386.00,290.36 C386.00,290.92 385.14,292.30 384.10,293.44 C382.29,295.40 381.11,297.17 376.50,304.93 C375.40,306.78 373.32,309.69 371.88,311.40 C370.45,313.10 368.95,315.51 368.57,316.75 C368.18,317.99 367.45,319.00 366.95,319.00 C366.45,319.00 365.07,320.91 363.88,323.25 C362.69,325.59 360.20,329.27 358.36,331.43 C356.51,333.59 355.00,335.92 355.00,336.60 C355.00,337.28 354.62,337.98 354.15,338.17 C353.68,338.35 351.99,340.47 350.40,342.88 C348.80,345.29 346.26,349.12 344.75,351.38 C343.23,353.65 341.21,356.77 340.25,358.32 C339.29,359.88 337.49,362.35 336.25,363.82 C335.01,365.30 333.98,366.95 333.96,367.50 C333.94,368.05 332.59,370.06 330.96,371.96 C329.33,373.87 328.00,375.93 328.00,376.54 C328.00,377.15 326.88,378.71 325.50,380.00 C324.12,381.29 323.00,382.88 323.00,383.54 C323.00,384.19 321.66,386.25 320.02,388.11 C318.37,389.98 317.02,391.88 317.02,392.34 C317.01,392.80 316.08,394.38 314.95,395.84 C310.91,401.06 307.87,406.31 306.45,410.50 C305.17,414.26 305.18,415.19 306.54,418.43 C308.36,422.79 315.99,430.41 321.25,433.11 C323.31,434.17 325.00,435.43 325.00,435.91 C325.00,436.38 326.62,437.54 328.59,438.48 C330.56,439.41 333.04,441.04 334.09,442.09 C335.14,443.14 336.59,444.00 337.31,444.00 C338.04,444.00 339.92,445.35 341.50,447.00 C343.08,448.65 344.93,450.00 345.61,450.00 C346.29,450.00 348.18,451.12 349.82,452.50 C351.45,453.88 353.22,455.00 353.76,455.00 C354.29,455.00 356.42,456.35 358.50,458.00 C360.58,459.65 362.68,461.00 363.19,461.00 C363.69,461.00 365.09,462.01 366.30,463.25 C368.57,465.57 371.82,467.63 378.13,470.77 ZM 286.00 781.12 C286.00,782.64 287.50,782.08 289.00,780.00 C289.90,778.75 291.59,778.00 293.50,778.00 C295.41,778.00 297.10,778.75 298.00,780.00 C299.38,781.91 303.00,782.82 303.00,781.25 C303.00,780.84 304.35,780.41 305.99,780.29 C310.63,779.97 312.99,778.26 313.05,775.21 C313.07,773.72 313.29,770.26 313.53,767.53 C313.78,764.80 313.57,761.12 313.09,759.35 C312.41,756.90 312.53,756.01 313.60,755.60 C314.52,755.25 315.00,755.77 315.00,757.13 C315.00,758.27 316.52,760.72 318.37,762.57 C320.22,764.42 321.57,766.10 321.37,766.30 C321.17,766.50 322.13,767.71 323.50,769.00 C324.88,770.29 326.00,771.02 326.00,770.61 C326.00,770.21 327.25,771.25 328.78,772.92 C331.85,776.28 341.01,779.75 348.00,780.20 C348.83,780.26 349.81,780.78 350.19,781.37 C350.63,782.04 351.59,781.62 352.81,780.22 C355.28,777.38 358.72,777.39 361.27,780.25 C362.63,781.79 363.41,782.10 363.72,781.24 C363.97,780.55 364.54,780.22 364.99,780.50 C366.28,781.29 377.50,777.49 380.81,775.13 C382.46,773.96 384.29,773.00 384.87,773.00 C389.25,773.00 400.66,755.05 401.18,747.34 C401.31,745.50 401.69,744.00 402.04,744.00 C402.39,744.00 402.70,740.40 402.74,736.00 C402.78,731.60 402.51,728.18 402.15,728.40 C401.79,728.62 401.38,727.39 401.23,725.65 C400.82,720.67 400.51,719.72 398.19,716.00 C396.99,714.08 396.00,712.05 396.00,711.50 C395.97,708.90 384.03,699.08 376.50,695.46 C368.86,691.79 368.03,691.61 358.00,691.51 C350.06,691.43 346.31,691.85 342.62,693.24 C339.94,694.25 337.54,694.87 337.29,694.62 C337.04,694.37 335.96,694.91 334.89,695.83 C333.82,696.75 331.27,698.44 329.22,699.59 C327.18,700.74 325.50,702.20 325.50,702.84 C325.50,703.48 325.05,704.03 324.50,704.06 C322.39,704.19 318.67,708.74 315.95,714.50 L 313.12 720.50 L 313.06 709.25 C313.02,702.46 312.60,698.00 312.00,698.00 C311.45,698.00 311.05,697.66 311.12,697.25 C311.48,694.93 310.73,694.00 308.50,694.00 C307.12,694.00 306.00,693.57 306.00,693.05 C306.00,692.52 302.96,691.96 299.25,691.80 L 292.50 691.50 L 292.20 684.04 C291.91,676.83 290.72,673.43 288.89,674.57 C288.40,674.87 288.00,674.64 288.00,674.06 C288.00,673.38 284.37,673.00 278.00,673.00 C271.63,673.00 268.00,673.38 268.00,674.06 C268.00,674.64 267.59,674.86 267.08,674.55 C266.02,673.90 263.05,676.57 262.89,678.32 C262.83,678.97 262.69,681.60 262.58,684.18 C262.32,689.99 260.72,692.00 256.38,692.00 C254.52,692.00 253.00,692.50 253.00,693.11 C253.00,693.72 252.33,693.96 251.51,693.64 C250.68,693.32 249.13,694.02 248.01,695.22 C246.22,697.14 246.00,698.72 246.03,709.44 C246.07,722.33 246.89,725.00 250.86,725.00 C252.04,725.00 253.00,725.42 253.00,725.93 C253.00,726.45 254.24,727.01 255.75,727.18 L 258.50 727.50 L 258.64 736.75 C258.72,741.84 259.07,746.74 259.41,747.63 C259.75,748.52 259.49,749.91 258.83,750.70 C258.07,751.62 257.99,752.40 258.61,752.83 C259.15,753.20 259.66,754.57 259.75,755.88 C260.16,762.44 267.67,775.94 270.08,774.45 C270.59,774.14 271.00,774.28 271.00,774.77 C271.00,776.09 280.41,780.25 283.40,780.25 C284.83,780.25 286.00,780.64 286.00,781.12 ZM 466.98 777.72 C467.00,779.10 470.00,778.28 470.00,776.89 C470.00,776.40 475.15,776.00 481.45,776.00 C490.91,776.00 493.06,776.28 493.80,777.60 C495.20,780.11 498.45,778.91 498.82,775.74 C498.99,774.23 499.55,773.00 500.07,773.00 C500.61,773.00 501.01,764.41 501.03,752.25 C501.06,736.58 501.39,731.07 502.39,729.75 C504.29,727.24 510.19,727.45 512.60,730.10 C514.31,732.00 514.55,734.38 515.00,753.95 C515.38,770.32 515.84,776.11 516.87,777.35 C518.58,779.40 520.38,779.45 522.00,777.50 C523.83,775.29 542.49,775.35 544.71,777.57 C546.14,779.00 546.43,779.00 547.89,777.54 C549.24,776.20 549.58,772.36 550.00,754.07 C550.45,734.39 550.69,732.00 552.40,730.10 C556.14,725.98 564.00,728.39 564.00,733.65 C564.00,734.94 564.44,736.00 564.98,736.00 C565.58,736.00 566.06,744.05 566.23,756.75 C566.50,777.41 566.51,777.50 568.75,777.82 C569.99,778.00 571.00,777.66 571.00,777.07 C571.00,775.57 593.23,775.63 594.73,777.13 C595.36,777.76 596.62,777.98 597.54,777.62 C599.09,777.03 599.09,776.79 597.61,774.53 C596.25,772.45 596.00,768.51 596.00,748.95 C596.00,726.17 596.03,725.79 598.25,724.00 C600.33,722.31 600.40,721.92 599.18,718.84 C598.45,717.00 597.62,714.16 597.33,712.51 C596.07,705.39 589.46,697.79 581.28,694.06 C573.52,690.53 561.48,690.72 553.95,694.50 C547.94,697.51 544.82,699.89 545.48,700.97 C545.72,701.35 545.14,701.68 544.21,701.69 C543.27,701.70 540.81,700.20 538.75,698.35 C536.68,696.51 534.47,695.00 533.83,695.00 C533.18,695.00 531.80,694.23 530.76,693.28 C529.22,691.89 527.01,691.59 518.97,691.67 C509.61,691.77 508.74,691.96 502.62,695.32 C497.28,698.26 496.06,698.61 495.58,697.35 C495.26,696.51 495.25,695.41 495.56,694.91 C495.87,694.41 495.42,694.00 494.56,694.00 C493.70,694.00 493.00,693.55 493.00,693.00 C493.00,692.40 488.83,692.00 482.50,692.00 C476.17,692.00 472.00,692.40 472.00,693.00 C472.00,693.55 471.52,694.00 470.93,694.00 C467.20,694.00 467.04,695.68 467.00,736.66 C466.98,758.57 466.97,777.05 466.98,777.72 ZM 807.00 781.22 C807.00,782.39 807.98,782.16 809.52,780.62 C810.28,779.86 810.63,778.96 810.29,778.62 C809.95,778.28 810.93,778.00 812.47,778.00 C814.09,778.00 816.05,778.91 817.13,780.15 C818.16,781.34 819.00,781.90 819.00,781.40 C819.00,780.91 820.36,780.40 822.03,780.29 C826.36,779.98 840.68,772.26 843.03,768.96 C845.91,764.91 850.83,754.74 851.38,751.67 C851.65,750.22 852.20,748.49 852.61,747.83 C853.57,746.27 853.97,727.00 853.04,727.00 C852.65,727.00 852.29,726.44 852.24,725.75 C852.01,722.56 850.77,718.09 848.90,713.64 C846.35,707.60 834.30,695.10 830.33,694.38 C828.81,694.11 827.04,693.45 826.40,692.92 C825.21,691.93 809.47,691.48 805.00,692.30 C803.62,692.55 801.38,693.18 800.00,693.70 C794.34,695.82 794.00,695.08 793.98,680.68 C793.98,673.43 793.54,666.83 793.02,666.00 C791.80,664.06 766.43,663.16 763.11,664.94 C761.00,666.07 761.00,666.10 761.00,722.07 C761.00,773.11 761.15,778.12 762.64,778.69 C763.62,779.07 764.78,778.65 765.50,777.66 C766.51,776.29 768.59,776.00 777.30,776.00 C783.74,776.00 788.14,776.42 788.54,777.07 C788.95,777.73 790.71,777.89 793.14,777.48 C795.96,777.00 797.76,777.27 799.51,778.42 C800.86,779.30 803.09,780.11 804.48,780.23 C805.87,780.34 807.00,780.79 807.00,781.22 ZM 196.00 781.06 C196.00,781.58 196.71,782.00 197.57,782.00 C199.43,782.00 202.17,779.51 201.29,778.62 C200.95,778.28 202.89,778.00 205.61,778.00 C209.41,778.00 210.89,778.46 212.00,780.00 C213.40,781.95 216.00,782.76 216.00,781.25 C216.00,780.84 217.91,780.38 220.25,780.23 C226.02,779.87 238.57,773.50 243.50,768.42 C246.16,765.68 248.03,762.49 249.09,758.90 C250.68,753.49 250.57,746.00 248.89,746.00 C248.40,746.00 248.00,745.30 248.00,744.44 C248.00,743.58 248.45,743.16 249.00,743.50 C249.55,743.84 250.00,743.19 250.00,742.06 C250.00,740.93 250.56,739.96 251.25,739.92 C252.24,739.86 252.24,739.74 251.24,739.34 C250.55,739.06 250.22,738.45 250.51,737.99 C251.34,736.65 248.02,727.80 245.36,724.27 C241.86,719.62 225.31,712.12 215.00,710.52 C211.39,709.95 208.20,708.44 209.03,707.68 C209.29,707.44 213.80,707.02 219.05,706.74 C226.25,706.35 229.06,706.57 230.49,707.61 C232.43,709.04 238.60,709.48 241.42,708.39 C242.29,708.06 243.00,706.71 243.00,705.39 C243.00,704.08 243.48,703.00 244.07,703.00 C244.80,703.00 244.99,699.62 244.66,692.50 C244.39,686.50 244.57,682.00 245.09,682.00 C246.53,682.00 246.15,678.16 244.47,675.59 C242.78,673.02 236.08,670.07 231.14,669.72 C229.42,669.60 228.00,669.21 228.00,668.87 C228.00,668.52 225.98,668.37 223.50,668.54 C221.02,668.70 219.00,668.43 219.00,667.92 C219.00,667.41 216.75,667.00 214.00,667.00 C211.25,667.00 209.00,667.42 209.00,667.94 C209.00,668.45 208.21,668.90 207.25,668.92 C190.40,669.40 175.78,679.37 172.34,692.75 C169.93,702.12 169.68,704.00 170.89,704.00 C171.50,704.00 172.00,705.12 172.00,706.50 C172.00,707.88 171.55,709.00 171.00,709.00 C169.39,709.00 169.84,712.20 172.35,718.61 C176.31,728.71 187.81,738.34 198.50,740.50 C209.39,742.70 215.98,745.92 209.95,746.10 C195.58,746.52 190.26,746.42 188.67,745.69 C184.95,743.97 177.06,742.34 175.91,743.05 C173.58,744.50 170.77,765.00 172.90,765.00 C173.40,765.00 173.58,766.73 173.29,768.84 C172.85,772.15 173.16,772.98 175.52,774.84 C179.36,777.85 185.97,779.69 194.25,780.05 C195.21,780.09 196.00,780.55 196.00,781.06 ZM 696.00 781.37 C696.00,781.88 696.84,781.34 697.87,780.15 C698.95,778.91 700.91,778.00 702.53,778.00 C704.07,778.00 705.05,778.28 704.71,778.62 C704.37,778.96 704.79,779.93 705.64,780.78 C706.49,781.64 707.48,781.92 707.84,781.41 C708.20,780.91 709.62,780.34 711.00,780.15 C712.38,779.95 714.72,779.16 716.20,778.40 C719.67,776.60 720.94,776.64 723.10,778.59 C724.72,780.06 725.00,780.02 726.65,778.09 C728.27,776.21 729.52,776.00 739.22,776.00 C745.15,776.00 750.00,776.40 750.00,776.89 C750.00,778.61 752.96,778.90 754.53,777.33 C755.91,775.95 756.08,772.15 755.91,747.87 C755.80,732.54 755.40,720.00 755.02,720.00 C754.64,720.00 754.29,719.44 754.25,718.75 C753.95,714.38 749.01,703.18 746.37,700.87 C743.85,698.66 736.70,695.13 730.55,693.05 C726.60,691.71 722.68,691.40 712.50,691.62 C701.39,691.85 698.48,692.27 692.50,694.49 C688.65,695.92 685.05,697.19 684.50,697.32 C681.65,697.99 681.20,699.39 681.20,707.50 C681.20,712.54 681.61,716.00 682.21,716.00 C682.76,716.00 682.95,716.68 682.64,717.51 C682.32,718.34 682.51,720.21 683.07,721.68 C683.82,723.65 683.75,724.57 682.79,725.24 C681.77,725.96 681.76,726.26 682.75,726.66 C683.44,726.94 684.00,727.78 684.00,728.54 C684.00,730.43 690.27,731.46 692.96,730.02 C695.96,728.42 704.26,726.96 711.84,726.71 L 718.17 726.50 L 714.34 728.22 C712.23,729.17 709.25,729.96 707.72,729.97 C704.76,730.00 694.28,733.27 690.05,735.49 C686.59,737.31 679.00,743.92 679.00,745.13 C679.00,745.66 678.10,747.96 677.00,750.24 C675.03,754.32 674.09,765.68 675.82,764.61 C676.27,764.33 677.20,765.66 677.88,767.55 C678.57,769.45 679.58,771.00 680.12,771.00 C680.67,771.00 680.80,771.52 680.40,772.15 C680.00,772.82 680.13,773.04 680.71,772.68 C681.27,772.33 682.58,773.04 683.62,774.26 C685.18,776.09 685.21,776.24 683.75,775.11 C682.79,774.36 682.00,774.03 682.00,774.36 C682.00,775.68 690.07,779.97 692.95,780.19 C694.63,780.32 696.00,780.85 696.00,781.37 ZM 605.22 776.98 C606.33,778.76 606.65,778.80 608.69,777.47 C612.07,775.25 670.51,775.28 671.36,777.50 C671.68,778.33 672.64,779.00 673.50,779.00 C675.52,779.00 676.60,776.20 675.13,774.73 C674.41,774.01 674.00,769.02 674.00,760.88 C674.00,753.89 673.73,747.45 673.39,746.58 C672.87,745.23 670.42,745.00 656.39,745.00 L 640.00 745.00 L 640.00 671.32 L 637.45 670.16 C633.93,668.55 611.64,668.62 608.76,670.25 C608.02,670.67 607.39,670.99 606.87,671.43 C604.06,673.77 604.06,679.47 604.03,721.09 L 604.03 724.76 C604.01,762.67 604.30,775.51 605.22,776.98 ZM 406.20 777.80 C407.85,779.45 409.95,779.31 410.64,777.50 C411.46,775.35 431.46,775.32 433.60,777.46 C434.40,778.26 435.72,778.66 436.53,778.35 C437.74,777.89 438.00,774.96 438.00,761.89 C438.00,750.93 438.34,746.00 439.11,746.00 C439.79,746.00 439.98,745.04 439.59,743.49 C438.43,738.87 443.64,731.02 447.90,730.97 C449.33,730.95 451.37,730.28 452.44,729.47 C453.97,728.31 454.57,728.26 455.27,729.25 C455.98,730.25 456.25,730.25 456.66,729.25 C456.94,728.56 457.60,728.00 458.13,728.00 C458.66,728.00 460.12,726.97 461.38,725.71 C463.30,723.79 463.62,722.56 463.35,718.16 C463.15,714.88 463.40,713.13 464.01,713.51 C464.60,713.87 465.00,712.45 465.00,710.00 C465.00,707.24 464.63,706.11 463.89,706.57 C463.13,707.04 463.02,706.51 463.53,704.88 C463.93,703.57 464.65,702.35 465.13,702.17 C466.50,701.64 466.08,695.69 464.53,693.64 C462.67,691.18 453.01,690.55 448.18,692.57 C446.29,693.36 443.78,694.23 442.62,694.49 C441.45,694.76 439.26,695.26 437.75,695.61 C436.02,696.00 435.00,695.82 435.00,695.12 C435.00,694.50 434.33,694.00 433.50,694.00 C432.67,694.00 432.00,693.55 432.00,693.00 C432.00,692.40 427.83,692.00 421.50,692.00 C415.17,692.00 411.00,692.40 411.00,693.00 C411.00,693.55 410.29,694.00 409.43,694.00 C405.08,694.00 405.00,694.78 405.00,736.73 C405.00,766.41 405.31,776.91 406.20,777.80 ZM 311.98 745.00 C312.37,745.83 312.42,747.40 312.09,748.50 C311.53,750.40 311.26,750.43 307.14,749.12 C304.71,748.35 302.49,748.13 302.14,748.62 C301.40,749.64 296.96,749.71 295.37,748.73 C293.80,747.76 291.79,737.25 292.17,732.00 L 292.50 727.50 L 299.25 727.20 C302.96,727.04 306.00,726.48 306.00,725.95 C306.00,725.43 306.67,725.00 307.50,725.00 C308.33,725.00 309.00,724.55 309.00,724.00 C309.00,723.45 309.69,723.00 310.52,723.00 C311.68,723.00 311.98,723.96 311.77,727.00 C311.62,729.20 311.16,731.00 310.75,731.00 C310.34,731.00 310.00,733.25 310.00,736.00 C310.00,738.92 310.45,741.00 311.08,741.00 C311.68,741.00 311.96,741.56 311.72,742.25 C311.47,742.94 311.59,744.17 311.98,745.00 ZM 813.56 746.22 C809.30,750.27 805.31,750.52 801.01,747.00 C796.13,743.00 794.61,739.24 796.07,734.78 C797.99,728.97 801.10,726.64 806.70,726.85 C813.70,727.12 817.00,730.58 817.00,737.66 C817.00,742.39 816.63,743.30 813.56,746.22 ZM 362.73 746.60 C360.75,748.47 358.99,749.95 358.82,749.90 C358.64,749.84 357.07,749.45 355.32,749.04 C351.52,748.13 350.07,746.74 347.75,741.72 C346.20,738.37 346.16,737.56 347.40,734.72 C349.91,728.96 353.25,726.31 357.40,726.80 C362.46,727.39 365.91,731.97 366.15,738.43 C366.31,742.73 365.97,743.55 362.73,746.60 ZM 719.84 752.12 C720.28,754.95 718.06,756.85 715.19,756.10 C711.88,755.24 712.18,753.76 716.09,751.74 C719.44,750.02 719.51,750.02 719.84,752.12 ZM 178.92 730.25 C181.19,732.82 182.00,733.46 182.00,732.67 C182.00,732.50 180.76,731.26 179.25,729.92 L 176.50 727.50 Z" fill="rgb(0,0,0)"/>
<path d="M 558.53 636.21 C556.59,635.78 546.45,630.36 544.50,628.72 C543.54,627.91 539.51,625.29 534.03,621.89 C532.60,621.01 529.88,618.87 527.99,617.14 C526.10,615.41 524.00,614.00 523.31,614.00 C522.63,614.00 520.53,612.65 518.65,611.00 C516.77,609.35 514.81,608.00 514.29,608.00 C513.77,608.00 512.29,606.88 511.00,605.50 C509.71,604.12 507.91,603.00 507.01,603.00 C506.11,603.00 504.08,601.65 502.50,600.00 C500.92,598.35 499.04,597.00 498.31,597.00 C497.59,597.00 496.20,596.21 495.22,595.25 C494.24,594.29 491.78,592.25 489.75,590.73 C485.03,587.17 481.44,579.52 482.95,576.21 C483.53,574.94 484.00,573.26 484.00,572.47 C484.00,571.14 491.78,559.42 497.19,552.59 C498.46,550.99 500.17,548.49 501.00,547.04 C504.63,540.66 506.67,537.50 509.03,534.60 C511.68,531.35 514.29,527.45 520.47,517.50 C524.80,510.52 528.28,505.32 530.50,502.50 C531.36,501.40 532.84,499.32 533.78,497.87 C534.73,496.42 537.30,492.60 539.50,489.37 C541.69,486.14 543.72,483.02 544.00,482.44 C544.49,481.39 553.99,467.29 562.14,455.50 C564.42,452.20 568.44,446.32 571.07,442.43 C573.70,438.54 576.57,434.77 577.43,434.06 C578.29,433.34 579.00,432.15 579.00,431.41 C579.00,430.67 580.35,428.53 582.00,426.65 C583.65,424.77 585.00,422.59 585.00,421.81 C585.00,421.02 586.35,419.08 588.00,417.50 C589.65,415.92 591.02,414.15 591.04,413.56 C591.06,412.98 592.41,410.94 594.04,409.04 C595.67,407.13 597.00,405.03 597.00,404.36 C597.00,403.70 598.01,401.88 599.25,400.32 C600.49,398.76 602.07,396.59 602.76,395.49 C609.13,385.46 611.64,381.85 615.25,377.53 C616.76,375.72 618.00,373.92 618.00,373.54 C618.00,373.16 620.14,369.66 622.75,365.75 C625.36,361.85 627.95,357.94 628.50,357.08 C629.05,356.21 630.51,354.07 631.75,352.32 C632.99,350.57 634.00,348.72 634.00,348.22 C634.00,347.72 634.95,346.45 636.11,345.40 C637.26,344.36 639.08,341.92 640.14,340.00 C641.20,338.08 643.42,334.70 645.07,332.50 C646.71,330.30 651.05,324.00 654.71,318.50 C658.38,313.00 661.96,307.91 662.68,307.18 C663.41,306.45 664.01,305.33 664.02,304.68 C664.02,304.03 665.26,302.08 666.77,300.33 C668.27,298.59 670.27,295.89 671.22,294.33 C674.01,289.74 675.35,287.70 678.00,284.02 C680.82,280.09 681.65,278.81 684.50,274.08 C685.60,272.25 687.45,269.57 688.61,268.12 C689.77,266.68 691.47,264.04 692.39,262.25 C693.30,260.46 694.38,259.00 694.79,259.00 C695.20,259.00 697.01,256.53 698.81,253.52 C700.62,250.50 702.63,248.14 703.30,248.27 C703.96,248.39 704.38,247.90 704.23,247.18 C704.07,246.45 704.35,246.10 704.85,246.40 C705.34,246.71 706.74,246.10 707.95,245.04 C709.17,243.99 710.80,243.37 711.58,243.67 C712.36,243.97 713.00,243.72 713.00,243.11 C713.00,242.50 713.67,242.00 714.50,242.00 C715.33,242.00 716.00,242.52 716.00,243.17 C716.00,243.81 716.26,244.07 716.58,243.75 C717.40,242.93 726.15,247.12 729.75,250.05 C731.40,251.40 734.04,253.27 735.62,254.22 C740.39,257.08 742.35,258.39 745.32,260.75 C746.88,261.99 748.60,263.00 749.15,263.00 C749.69,263.00 752.28,264.80 754.88,267.00 C757.49,269.20 759.99,271.00 760.43,271.00 C760.87,271.00 762.69,272.24 764.47,273.75 C766.25,275.26 769.22,277.40 771.07,278.50 C780.31,283.98 788.23,289.36 789.65,291.11 C790.73,292.45 792.28,297.92 792.45,301.00 C792.65,304.51 789.58,310.81 782.33,321.79 C778.08,328.23 774.23,333.95 773.78,334.50 C771.79,336.93 767.98,342.76 766.49,345.66 C765.59,347.40 763.99,349.60 762.93,350.56 C761.87,351.52 761.00,352.70 761.00,353.17 C761.00,353.64 759.09,356.74 756.75,360.06 C754.41,363.39 751.60,367.57 750.50,369.36 C749.40,371.15 747.93,373.26 747.24,374.06 C746.54,374.85 743.72,378.88 740.96,383.00 C738.20,387.12 734.43,392.77 732.58,395.54 C730.72,398.32 728.48,401.18 727.60,401.92 C726.72,402.65 726.00,403.92 726.00,404.74 C726.00,405.56 724.65,407.77 723.00,409.65 C721.35,411.53 720.00,413.65 720.00,414.36 C720.00,415.07 718.88,416.71 717.50,418.00 C716.12,419.29 715.00,420.80 715.00,421.36 C715.00,421.92 714.07,423.36 712.93,424.58 C711.79,425.79 710.10,428.14 709.18,429.79 C706.78,434.08 695.86,450.25 694.31,451.82 C693.59,452.55 693.00,453.73 693.00,454.45 C693.00,455.17 692.33,456.31 691.50,457.00 C690.12,458.14 682.00,469.76 682.00,470.59 C682.00,470.79 678.74,475.72 674.75,481.56 C670.76,487.39 667.04,492.96 666.48,493.93 C665.92,494.90 664.48,497.00 663.26,498.60 C657.32,506.43 654.08,510.99 651.59,515.05 C650.09,517.50 647.53,521.30 645.91,523.50 C643.07,527.37 639.00,534.72 639.00,536.00 C639.00,536.55 646.61,541.00 647.56,541.00 C648.45,541.00 652.28,536.23 653.59,533.50 C654.37,531.85 656.12,528.92 657.48,527.00 C658.83,525.08 660.97,522.02 662.22,520.21 C663.47,518.40 665.62,515.40 667.00,513.55 C668.38,511.70 670.40,508.71 671.50,506.89 C672.60,505.08 674.00,502.77 674.61,501.76 C675.22,500.75 676.63,498.93 677.73,497.71 C678.84,496.50 680.36,494.30 681.12,492.84 C681.88,491.38 685.64,485.53 689.48,479.84 C693.32,474.15 697.05,468.38 697.77,467.00 C698.49,465.62 699.63,464.05 700.31,463.50 C700.98,462.95 702.09,461.38 702.78,460.00 C703.90,457.77 705.55,455.34 710.59,448.50 C711.40,447.40 712.83,445.30 713.78,443.84 C714.73,442.38 718.65,436.63 722.50,431.06 C726.35,425.50 730.95,418.85 732.72,416.28 C736.26,411.15 740.42,407.20 743.50,406.04 C747.86,404.40 758.08,406.99 760.97,410.46 C761.69,411.33 763.68,412.71 765.39,413.54 C767.10,414.36 770.27,416.58 772.43,418.47 C774.59,420.35 776.67,421.71 777.05,421.47 C777.42,421.24 778.53,421.93 779.51,423.01 C780.49,424.10 783.25,426.13 785.65,427.53 C788.04,428.94 790.00,430.47 790.00,430.93 C790.00,431.40 791.01,432.04 792.25,432.36 C793.49,432.67 797.43,435.08 801.01,437.71 C804.59,440.35 808.70,443.17 810.15,444.00 C817.08,447.94 823.99,453.12 825.10,455.19 C826.84,458.44 827.00,469.76 825.32,471.15 C824.60,471.75 824.00,472.79 824.00,473.45 C824.00,474.11 822.88,475.71 821.50,477.00 C820.12,478.29 819.00,479.85 819.00,480.46 C819.00,481.07 817.67,483.13 816.04,485.04 C814.41,486.94 813.06,488.90 813.04,489.40 C813.02,489.89 811.49,492.14 809.65,494.40 C807.80,496.65 805.54,499.96 804.62,501.75 C803.70,503.54 802.59,505.00 802.14,505.00 C801.70,505.00 800.71,506.24 799.94,507.75 C799.18,509.26 797.53,511.77 796.28,513.33 C795.02,514.88 794.00,516.72 794.00,517.42 C794.00,518.12 793.05,519.55 791.89,520.60 C790.74,521.64 788.93,524.08 787.88,526.00 C786.82,527.92 783.97,532.20 781.53,535.50 C779.10,538.80 777.08,541.89 777.05,542.36 C777.02,542.83 775.88,544.55 774.50,546.18 C773.12,547.82 772.00,549.72 772.00,550.40 C772.00,551.09 770.88,552.71 769.50,554.00 C768.12,555.29 767.00,556.83 767.00,557.42 C767.00,558.02 765.83,559.85 764.40,561.50 C762.98,563.15 761.18,565.71 760.41,567.20 C759.01,569.88 753.32,578.59 751.72,580.50 C751.26,581.05 749.90,583.05 748.69,584.93 C745.90,589.30 743.96,592.14 741.71,595.13 C738.43,599.49 735.10,604.47 733.10,608.00 C732.01,609.92 729.97,612.81 728.56,614.41 C727.15,616.00 726.00,617.66 726.00,618.08 C726.00,618.50 724.79,620.28 723.32,622.03 C721.85,623.78 719.92,626.63 719.04,628.36 C718.16,630.09 716.89,631.39 716.22,631.25 C715.55,631.11 715.11,631.53 715.25,632.18 C715.39,632.83 714.38,633.92 713.00,634.60 C706.82,637.65 698.73,636.68 693.95,632.33 C692.54,631.05 690.71,630.00 689.88,630.00 C689.05,630.00 687.05,628.61 685.44,626.91 C683.82,625.21 680.92,622.99 679.00,621.99 C677.08,620.98 674.72,619.23 673.76,618.08 C672.80,616.94 671.43,616.00 670.70,616.00 C669.97,616.00 668.44,615.13 667.29,614.06 C666.14,612.99 663.58,611.43 661.60,610.61 C659.62,609.78 658.00,608.61 658.00,608.00 C658.00,607.39 656.65,606.43 655.00,605.85 C653.35,605.27 652.00,604.42 652.00,603.94 C652.00,603.47 649.86,601.86 647.25,600.37 C644.64,598.88 641.71,596.99 640.74,596.17 C639.78,595.35 638.18,594.19 637.19,593.59 C636.21,592.99 633.92,591.60 632.10,590.50 C630.29,589.40 626.64,586.81 624.01,584.75 C621.37,582.69 618.85,581.00 618.41,581.00 C617.97,581.00 616.42,579.86 614.97,578.47 C613.51,577.08 611.69,576.20 610.91,576.51 C610.14,576.83 607.92,579.86 606.00,583.25 C604.08,586.64 601.26,590.85 599.75,592.59 C598.24,594.34 597.00,596.05 597.00,596.41 C597.00,596.76 595.19,599.63 592.98,602.77 C590.77,605.92 586.42,612.33 583.32,617.00 C575.23,629.19 570.36,634.76 567.22,635.44 C562.32,636.51 560.53,636.66 558.53,636.21 ZM 525.94 610.94 C560.92,634.73 562.55,635.51 568.12,631.12 C569.43,630.08 579.28,616.15 590.00,600.16 C600.72,584.17 609.87,571.07 610.33,571.04 C610.79,571.02 627.22,581.96 646.83,595.35 C666.45,608.74 686.90,622.69 692.28,626.35 C703.40,633.92 707.82,634.89 712.35,630.75 C714.79,628.53 819.60,473.62 822.62,467.78 C824.68,463.79 823.73,459.05 820.24,455.82 C816.91,452.74 756.37,411.58 752.74,409.93 C749.92,408.64 744.46,409.32 741.91,411.28 C741.04,411.95 720.16,442.42 695.53,479.00 C670.89,515.58 650.39,545.88 649.97,546.35 C649.11,547.30 634.00,537.48 634.00,535.98 C634.00,535.23 705.82,428.28 781.06,317.00 C785.34,310.67 789.14,304.30 789.51,302.83 C791.05,296.68 789.01,294.86 752.84,270.25 C721.41,248.86 718.33,247.00 714.39,247.00 C711.36,247.00 709.38,247.66 707.60,249.25 C706.21,250.49 663.38,313.38 612.40,389.00 C561.43,464.62 512.36,537.42 503.36,550.76 C484.86,578.19 484.44,579.32 490.25,585.46 C492.04,587.34 508.10,598.81 525.94,610.94 ZM 270.56 634.47 C269.49,633.66 267.88,633.00 266.98,633.00 C266.08,633.00 264.30,631.88 263.01,630.51 C261.72,629.14 258.72,627.07 256.33,625.92 C253.95,624.77 252.00,623.41 252.00,622.91 C252.00,622.41 251.39,622.00 250.65,622.00 C249.90,622.00 248.08,620.87 246.59,619.50 C245.11,618.12 242.68,616.30 241.20,615.45 C239.71,614.60 235.80,611.91 232.50,609.48 C223.47,602.81 215.80,597.68 213.00,596.43 C211.62,595.81 209.88,594.56 209.13,593.65 C208.37,592.74 207.23,592.00 206.58,592.00 C204.91,592.00 197.68,584.38 197.35,582.27 C197.20,581.30 196.91,579.40 196.70,578.05 C196.18,574.72 198.59,567.06 200.95,564.55 C202.01,563.42 204.89,559.35 207.36,555.50 C209.83,551.65 212.78,547.30 213.92,545.84 C215.07,544.38 216.00,542.77 216.00,542.27 C216.00,541.77 217.35,539.85 219.00,538.00 C220.65,536.15 222.00,534.12 222.00,533.49 C222.00,532.86 223.12,531.29 224.50,530.00 C225.88,528.71 227.00,527.15 227.00,526.54 C227.00,525.93 228.33,523.87 229.96,521.96 C231.59,520.06 232.94,518.16 232.96,517.74 C233.02,516.60 240.79,505.42 242.51,503.99 C243.33,503.31 244.00,501.99 244.00,501.05 C244.00,500.12 245.09,498.33 246.42,497.08 C247.75,495.83 249.38,493.50 250.04,491.90 C250.70,490.31 251.65,489.00 252.14,489.00 C252.64,489.00 253.58,487.76 254.25,486.25 C254.91,484.74 257.26,480.88 259.47,477.68 C261.69,474.48 264.62,470.15 266.00,468.06 C267.38,465.98 269.85,462.33 271.50,459.97 C273.15,457.61 275.33,454.29 276.34,452.59 C277.36,450.89 279.21,448.38 280.47,447.00 C281.72,445.62 283.37,443.17 284.12,441.55 C286.56,436.32 291.69,434.43 302.14,434.88 C303.62,434.95 306.91,436.76 309.62,439.00 C312.29,441.20 315.00,443.00 315.66,443.00 C316.32,443.00 317.68,444.06 318.70,445.34 C319.71,446.63 322.22,448.49 324.27,449.46 C326.32,450.43 328.00,451.59 328.00,452.04 C328.00,452.48 329.58,453.37 331.51,454.00 C333.44,454.64 335.48,456.02 336.04,457.08 C336.61,458.14 337.87,459.00 338.85,459.00 C339.82,459.00 341.94,460.29 343.56,461.86 C345.18,463.43 348.02,465.57 349.88,466.61 C356.16,470.13 357.12,470.74 359.51,472.82 C360.82,473.96 363.15,475.55 364.70,476.36 C369.26,478.75 373.59,483.64 375.45,488.52 L 377.20 493.08 L 373.59 500.29 C371.61,504.26 367.27,511.10 363.95,515.50 C360.63,519.90 357.22,524.94 356.37,526.70 C355.51,528.47 354.18,530.43 353.41,531.08 C350.43,533.54 352.21,537.04 357.95,540.01 C359.65,540.90 360.52,540.95 360.77,540.20 C360.97,539.60 362.34,537.56 363.81,535.65 C365.29,533.75 367.27,530.91 368.22,529.35 C371.29,524.27 372.46,522.56 375.00,519.40 C376.38,517.69 378.27,514.99 379.22,513.40 C380.17,511.80 381.52,509.63 382.22,508.56 C382.92,507.50 385.61,503.41 388.18,499.49 C390.75,495.57 393.57,491.77 394.43,491.06 C395.29,490.34 396.00,489.15 396.00,488.41 C396.00,487.67 397.35,485.53 399.00,483.65 C400.65,481.77 402.00,479.89 402.00,479.46 C402.00,479.04 403.24,477.08 404.75,475.11 C407.70,471.27 408.41,470.21 411.50,465.08 C412.60,463.25 414.51,460.50 415.75,458.98 C416.99,457.46 418.00,455.79 418.00,455.29 C418.00,454.78 419.35,452.85 421.00,451.00 C422.65,449.15 424.00,447.12 424.00,446.49 C424.00,445.86 425.12,444.29 426.50,443.00 C427.88,441.71 429.00,440.15 429.00,439.54 C429.00,438.93 430.33,436.87 431.96,434.96 C433.59,433.06 434.94,431.05 434.96,430.50 C434.98,429.95 436.13,428.19 437.50,426.59 C438.88,425.00 440.00,423.18 440.00,422.56 C440.00,421.94 441.12,420.10 442.49,418.47 C443.86,416.83 446.00,413.97 447.24,412.09 C449.62,408.51 450.04,408.22 456.62,405.51 C460.68,403.84 460.82,403.85 466.42,406.50 C469.54,407.98 474.07,410.69 476.47,412.53 C478.88,414.37 482.12,416.59 483.67,417.46 C490.14,421.11 493.02,423.02 494.95,424.95 C496.08,426.08 497.59,427.00 498.31,427.00 C499.03,427.00 500.71,428.01 502.03,429.25 C505.87,432.84 517.35,441.00 518.55,441.00 C519.16,441.00 520.71,442.12 522.00,443.50 C523.29,444.88 524.87,446.00 525.51,446.00 C527.95,446.00 536.01,453.39 537.96,457.42 C540.36,462.37 540.48,464.78 538.47,467.44 C537.66,468.51 537.00,470.12 537.00,471.02 C537.00,471.92 535.88,473.71 534.50,475.00 C533.12,476.29 532.00,478.09 532.00,478.99 C532.00,479.89 530.65,481.92 529.00,483.50 C527.35,485.08 526.00,486.93 526.00,487.61 C526.00,488.29 524.88,490.18 523.50,491.82 C522.12,493.45 521.00,495.11 521.00,495.51 C521.00,495.91 519.76,497.69 518.25,499.47 C515.54,502.66 513.08,506.46 509.86,512.45 C508.96,514.13 507.27,516.36 506.11,517.40 C504.95,518.45 504.00,519.84 504.00,520.48 C504.00,521.12 502.88,522.71 501.50,524.00 C500.12,525.29 499.00,526.84 499.00,527.45 C499.00,528.05 496.06,532.81 492.48,538.02 C479.50,556.87 478.48,558.36 477.50,559.92 C476.95,560.79 474.93,563.75 473.00,566.50 C469.15,572.00 467.79,574.07 465.22,578.40 C464.27,579.99 462.26,582.75 460.75,584.53 C459.24,586.31 458.00,588.05 458.00,588.39 C458.00,589.39 450.14,600.64 448.49,602.01 C447.67,602.69 447.00,603.85 447.00,604.59 C447.00,605.33 445.65,607.47 444.00,609.35 C442.35,611.23 441.00,613.11 441.00,613.54 C441.00,613.96 439.88,615.79 438.50,617.59 C437.12,619.39 436.00,621.28 436.00,621.78 C436.00,622.28 435.05,623.55 433.89,624.60 C432.72,625.64 431.41,627.44 430.97,628.59 C429.94,631.29 419.64,636.38 416.70,635.64 C415.49,635.34 411.53,633.10 407.91,630.67 C404.28,628.23 399.71,625.48 397.75,624.55 C395.79,623.62 393.40,621.99 392.44,620.93 C391.48,619.87 390.26,619.00 389.73,619.00 C389.20,619.00 387.16,617.59 385.20,615.87 C383.25,614.16 380.18,612.14 378.39,611.39 C376.60,610.64 374.85,609.56 374.50,608.99 C373.39,607.20 363.15,600.00 361.72,600.00 C360.96,600.00 359.29,598.88 358.00,597.50 C356.71,596.12 355.07,595.00 354.36,595.00 C353.65,595.00 351.53,593.65 349.65,592.00 C347.77,590.35 345.73,589.00 345.12,589.00 C344.50,589.00 344.00,588.55 344.00,588.00 C344.00,587.45 343.37,587.00 342.61,587.00 C341.84,587.00 340.95,586.33 340.64,585.50 C340.32,584.67 339.39,584.00 338.57,584.00 C337.74,584.00 335.59,582.76 333.78,581.25 C331.98,579.74 329.11,577.73 327.41,576.79 L 324.32 575.08 L 321.93 578.29 C317.06,584.83 313.00,590.98 313.00,591.82 C313.00,592.30 312.06,593.54 310.92,594.57 C309.77,595.61 308.19,597.82 307.41,599.48 C306.62,601.14 303.27,606.33 299.96,611.00 C296.66,615.67 292.78,621.30 291.35,623.50 C284.46,634.13 276.01,638.59 270.56,634.47 ZM 378.13 470.77 C371.82,467.63 368.57,465.57 366.30,463.25 C365.09,462.01 363.69,461.00 363.19,461.00 C362.68,461.00 360.58,459.65 358.50,458.00 C356.42,456.35 354.29,455.00 353.76,455.00 C353.22,455.00 351.45,453.88 349.82,452.50 C348.18,451.12 346.29,450.00 345.61,450.00 C344.93,450.00 343.08,448.65 341.50,447.00 C339.92,445.35 338.04,444.00 337.31,444.00 C336.59,444.00 335.14,443.14 334.09,442.09 C333.04,441.04 330.56,439.41 328.59,438.48 C326.62,437.54 325.00,436.38 325.00,435.91 C325.00,435.43 323.31,434.17 321.25,433.11 C315.99,430.41 308.36,422.79 306.54,418.43 C305.18,415.19 305.17,414.26 306.45,410.50 C307.87,406.31 310.91,401.06 314.95,395.84 C316.08,394.38 317.01,392.80 317.02,392.34 C317.02,391.88 318.37,389.98 320.02,388.11 C321.66,386.25 323.00,384.19 323.00,383.54 C323.00,382.88 324.12,381.29 325.50,380.00 C326.88,378.71 328.00,377.15 328.00,376.54 C328.00,375.93 329.33,373.87 330.96,371.96 C332.59,370.06 333.94,368.05 333.96,367.50 C333.98,366.95 335.01,365.30 336.25,363.82 C337.49,362.35 339.29,359.88 340.25,358.32 C341.21,356.77 343.23,353.65 344.75,351.38 C346.26,349.12 348.80,345.29 350.40,342.88 C351.99,340.47 353.68,338.35 354.15,338.17 C354.62,337.98 355.00,337.28 355.00,336.60 C355.00,335.92 356.51,333.59 358.36,331.43 C360.20,329.27 362.69,325.59 363.88,323.25 C365.07,320.91 366.45,319.00 366.95,319.00 C367.45,319.00 368.18,317.99 368.57,316.75 C368.95,315.51 370.45,313.10 371.88,311.40 C373.32,309.69 375.40,306.78 376.50,304.93 C381.11,297.17 382.29,295.40 384.10,293.44 C385.14,292.30 386.00,290.92 386.00,290.36 C386.00,289.80 387.12,288.29 388.50,287.00 C389.88,285.71 391.00,284.09 391.00,283.40 C391.00,282.72 392.12,280.82 393.50,279.18 C394.88,277.55 396.00,275.89 396.00,275.50 C396.00,275.11 397.42,272.99 399.16,270.80 C403.36,265.50 407.00,260.09 407.00,259.16 C407.00,258.04 415.67,246.33 417.19,245.37 C419.09,244.19 420.84,243.92 427.00,243.88 C432.75,243.84 439.04,246.44 444.34,251.04 C445.73,252.26 447.75,253.76 448.81,254.38 C449.87,254.99 453.83,257.85 457.62,260.72 C461.40,263.58 465.21,265.95 466.08,265.97 C466.94,265.98 468.71,267.12 470.00,268.50 C471.29,269.88 472.77,271.00 473.29,271.00 C473.81,271.00 475.77,272.35 477.65,274.00 C479.53,275.65 481.65,277.00 482.36,277.00 C483.07,277.00 484.71,278.12 486.00,279.50 C487.29,280.88 488.76,282.00 489.26,282.00 C490.47,282.00 498.39,287.55 503.89,292.25 C506.31,294.31 508.66,296.00 509.13,296.00 C509.60,296.00 512.08,297.60 514.63,299.55 L 519.29 303.10 L 522.14 300.36 C523.71,298.86 525.00,297.10 525.00,296.47 C525.00,295.83 525.94,294.46 527.08,293.43 C528.23,292.39 529.80,290.18 530.58,288.52 C531.35,286.86 534.01,282.80 536.49,279.50 C538.96,276.20 541.78,272.21 542.74,270.62 C543.71,269.04 545.51,266.50 546.75,264.98 C547.99,263.46 549.00,261.79 549.00,261.29 C549.00,260.78 550.35,258.85 552.00,257.00 C553.65,255.15 555.00,253.13 555.00,252.52 C555.00,251.17 560.69,245.64 563.50,244.26 C565.93,243.06 568.00,243.67 568.00,245.58 C568.00,246.36 568.90,247.00 570.00,247.00 C571.10,247.00 572.00,246.37 572.00,245.61 C572.00,243.15 574.58,243.12 578.59,245.54 C580.74,246.83 583.85,248.53 585.50,249.31 C587.15,250.09 589.36,251.69 590.40,252.86 C591.45,254.04 592.74,255.00 593.27,255.00 C593.80,255.00 595.73,256.24 597.56,257.75 C602.52,261.85 611.76,268.23 612.48,268.04 C612.82,267.96 614.67,269.26 616.59,270.94 C618.50,272.62 620.66,274.00 621.38,274.00 C622.10,274.00 623.55,274.95 624.59,276.10 C625.64,277.26 627.85,278.90 629.50,279.74 C632.80,281.43 638.11,285.55 642.04,289.47 C643.43,290.86 645.12,292.00 645.79,292.00 C646.45,292.00 647.00,292.67 647.00,293.50 C647.00,294.33 647.40,295.00 647.88,295.00 C649.05,295.00 648.63,302.45 647.18,307.57 C646.54,309.80 644.89,312.69 643.51,313.99 C642.13,315.29 641.00,316.86 641.00,317.49 C641.00,318.11 640.00,319.70 638.78,321.01 C637.55,322.32 635.86,324.64 635.03,326.15 C633.58,328.75 625.28,340.91 615.46,354.81 C613.01,358.29 611.00,361.53 611.00,362.03 C611.00,362.52 609.76,364.41 608.25,366.22 C606.74,368.03 605.05,370.23 604.50,371.12 C603.95,372.01 601.59,375.53 599.25,378.94 C596.91,382.35 595.00,385.48 595.00,385.89 C595.00,386.30 593.65,388.15 592.00,390.00 C590.35,391.85 589.00,393.88 589.00,394.53 C589.00,395.17 588.19,396.43 587.19,397.33 C586.20,398.23 583.38,402.14 580.94,406.03 C564.94,431.49 558.96,439.79 555.37,441.49 C549.91,444.09 544.71,444.51 541.81,442.61 C540.45,441.72 539.12,441.21 538.85,441.49 C538.58,441.76 537.07,440.63 535.49,438.99 C533.91,437.35 532.06,436.00 531.36,436.00 C530.67,436.00 528.89,434.88 527.41,433.50 C525.92,432.12 524.20,431.00 523.58,431.00 C522.95,431.00 520.97,429.65 519.16,428.00 C517.35,426.35 515.34,425.00 514.68,425.00 C514.02,425.00 512.27,423.88 510.78,422.50 C509.30,421.12 507.68,420.00 507.18,420.00 C506.69,420.00 504.24,418.20 501.74,416.00 C499.24,413.80 496.55,412.00 495.77,412.00 C494.99,412.00 493.26,410.83 491.92,409.41 C488.95,406.23 480.94,400.70 479.29,400.68 C477.32,400.66 471.50,393.83 469.49,389.17 C467.90,385.47 467.83,384.72 469.06,383.94 C469.85,383.44 470.19,383.02 469.80,383.02 C468.59,382.99 471.22,376.62 473.66,373.67 C474.95,372.12 476.00,370.29 476.00,369.61 C476.00,368.93 476.96,367.34 478.14,366.08 C480.77,363.26 487.00,354.08 487.00,353.04 C487.00,352.62 488.35,350.58 490.00,348.50 C491.65,346.42 493.00,344.12 493.00,343.38 C493.00,342.27 486.08,337.00 484.62,337.00 C484.39,337.00 483.28,338.46 482.16,340.25 C481.04,342.04 478.30,346.13 476.06,349.35 C473.83,352.57 472.00,355.51 472.00,355.89 C472.00,356.27 470.67,358.13 469.04,360.04 C467.41,361.94 466.06,363.84 466.04,364.26 C466.02,364.68 464.09,367.75 461.75,371.08 C459.41,374.41 456.38,378.85 455.00,380.94 C448.87,390.25 446.83,393.18 445.38,394.78 C444.06,396.25 442.16,399.05 436.50,407.92 C435.95,408.78 434.49,410.76 433.25,412.32 C432.01,413.88 431.00,415.69 431.00,416.34 C431.00,416.99 429.99,418.64 428.75,420.01 C426.47,422.53 422.16,428.65 418.50,434.54 C417.40,436.32 415.15,439.69 413.50,442.05 C411.85,444.40 409.60,447.78 408.50,449.55 C403.47,457.65 400.71,461.54 395.99,467.18 C391.59,472.45 384.42,473.89 378.13,470.77 ZM 382.13 468.92 C384.93,470.02 387.59,469.48 390.92,467.12 C392.25,466.18 413.52,435.50 438.18,398.95 C462.84,362.40 483.48,332.34 484.05,332.16 C484.61,331.97 488.05,333.77 491.69,336.16 C495.33,338.54 498.72,340.78 499.24,341.11 C499.75,341.45 494.06,350.77 486.59,361.83 C471.10,384.76 470.53,386.44 476.25,392.44 C478.04,394.32 494.11,405.78 511.96,417.93 C548.04,442.46 548.94,442.86 554.88,437.25 C558.23,434.08 642.60,309.11 644.63,304.30 C645.73,301.70 645.75,300.41 644.74,297.37 C643.61,293.96 640.47,291.55 609.50,270.36 C576.33,247.66 575.38,247.09 570.44,247.05 C566.17,247.01 564.97,247.43 562.81,249.75 C561.39,251.26 551.83,264.99 541.56,280.25 C531.28,295.51 522.42,308.00 521.86,308.00 C521.30,308.00 500.97,294.44 476.67,277.86 C452.38,261.28 431.04,247.31 429.25,246.81 C426.83,246.14 425.13,246.32 422.59,247.52 C419.12,249.17 418.15,250.57 329.75,381.77 C308.90,412.71 308.21,414.16 311.58,419.86 C313.09,422.43 377.08,466.91 382.13,468.92 ZM 265.88 627.16 C269.94,629.82 274.26,632.00 275.48,632.00 C280.28,632.00 284.38,627.14 303.32,599.00 C316.09,580.02 323.08,570.50 324.23,570.50 C325.18,570.50 346.10,584.21 370.71,600.98 L 372.14 601.95 C410.43,628.03 418.08,633.24 422.56,631.26 C423.73,630.75 424.69,629.74 425.92,628.48 C430.69,623.60 535.03,468.12 535.66,464.94 C536.94,458.55 535.33,457.04 505.62,436.79 C490.15,426.25 474.66,415.68 471.19,413.31 C464.57,408.79 460.43,407.93 455.69,410.10 C454.14,410.80 436.91,435.46 407.51,479.03 L 361.73 546.88 L 354.11 541.79 C349.93,538.99 346.32,536.55 346.10,536.37 C345.89,536.19 351.73,527.15 359.09,516.27 C371.02,498.65 372.48,496.04 372.49,492.27 C372.50,488.87 371.91,487.47 369.50,485.14 C366.03,481.79 307.13,441.51 302.39,439.25 C298.37,437.33 293.07,438.23 290.17,441.32 C288.99,442.57 268.45,472.60 244.53,508.05 C203.08,569.47 201.04,572.71 201.02,577.06 C201.00,580.76 201.52,582.12 203.75,584.23 C206.24,586.59 247.66,615.21 265.88,627.16 ZM 286.00 781.12 C286.00,780.64 284.83,780.25 283.40,780.25 C280.41,780.25 271.00,776.09 271.00,774.77 C271.00,774.28 270.59,774.14 270.08,774.45 C267.67,775.94 260.16,762.44 259.75,755.88 C259.66,754.57 259.15,753.20 258.61,752.83 C257.99,752.40 258.07,751.62 258.83,750.70 C259.49,749.91 259.75,748.52 259.41,747.63 C259.07,746.74 258.72,741.84 258.64,736.75 L 258.50 727.50 L 255.75 727.18 C254.24,727.01 253.00,726.45 253.00,725.93 C253.00,725.42 252.04,725.00 250.86,725.00 C246.89,725.00 246.07,722.33 246.03,709.44 C246.00,698.72 246.22,697.14 248.01,695.22 C249.13,694.02 250.68,693.32 251.51,693.64 C252.33,693.96 253.00,693.72 253.00,693.11 C253.00,692.50 254.52,692.00 256.38,692.00 C260.72,692.00 262.32,689.99 262.58,684.18 C262.69,681.60 262.83,678.97 262.89,678.32 C263.05,676.57 266.02,673.90 267.08,674.55 C267.59,674.86 268.00,674.64 268.00,674.06 C268.00,673.38 271.63,673.00 278.00,673.00 C284.37,673.00 288.00,673.38 288.00,674.06 C288.00,674.64 288.40,674.87 288.89,674.57 C290.72,673.43 291.91,676.83 292.20,684.04 L 292.50 691.50 L 299.25 691.80 C302.96,691.96 306.00,692.52 306.00,693.05 C306.00,693.57 307.12,694.00 308.50,694.00 C310.73,694.00 311.48,694.93 311.12,697.25 C311.05,697.66 311.45,698.00 312.00,698.00 C312.60,698.00 313.02,702.46 313.06,709.25 L 313.12 720.50 L 315.95 714.50 C318.67,708.74 322.39,704.19 324.50,704.06 C325.05,704.03 325.50,703.48 325.50,702.84 C325.50,702.20 327.18,700.74 329.22,699.59 C331.27,698.44 333.82,696.75 334.89,695.83 C335.96,694.91 337.04,694.37 337.29,694.62 C337.54,694.87 339.94,694.25 342.62,693.24 C346.31,691.85 350.06,691.43 358.00,691.51 C368.03,691.61 368.86,691.79 376.50,695.46 C384.03,699.08 395.97,708.90 396.00,711.50 C396.00,712.05 396.99,714.08 398.19,716.00 C400.51,719.72 400.82,720.67 401.23,725.65 C401.38,727.39 401.79,728.62 402.15,728.40 C402.51,728.18 402.78,731.60 402.74,736.00 C402.70,740.40 402.39,744.00 402.04,744.00 C401.69,744.00 401.31,745.50 401.18,747.34 C400.66,755.05 389.25,773.00 384.87,773.00 C384.29,773.00 382.46,773.96 380.81,775.13 C377.50,777.49 366.28,781.29 364.99,780.50 C364.54,780.22 363.97,780.55 363.72,781.24 C363.41,782.10 362.63,781.79 361.27,780.25 C358.72,777.39 355.28,777.38 352.81,780.22 C351.59,781.62 350.63,782.04 350.19,781.37 C349.81,780.78 348.83,780.26 348.00,780.20 C341.01,779.75 331.85,776.28 328.78,772.92 C327.25,771.25 326.00,770.21 326.00,770.61 C326.00,771.02 324.88,770.29 323.50,769.00 C322.13,767.71 321.17,766.50 321.37,766.30 C321.57,766.10 320.22,764.42 318.37,762.57 C316.52,760.72 315.00,758.27 315.00,757.13 C315.00,755.77 314.52,755.25 313.60,755.60 C312.53,756.01 312.41,756.90 313.09,759.35 C313.57,761.12 313.78,764.80 313.53,767.53 C313.29,770.26 313.07,773.72 313.05,775.21 C312.99,778.26 310.63,779.97 305.99,780.29 C304.35,780.41 303.00,780.84 303.00,781.25 C303.00,782.82 299.38,781.91 298.00,780.00 C297.10,778.75 295.41,778.00 293.50,778.00 C291.59,778.00 289.90,778.75 289.00,780.00 C287.50,782.08 286.00,782.64 286.00,781.12 ZM 807.00 781.22 C807.00,780.79 805.87,780.34 804.48,780.23 C803.09,780.11 800.86,779.30 799.51,778.42 C797.76,777.27 795.96,777.00 793.14,777.48 C790.71,777.89 788.95,777.73 788.54,777.07 C788.14,776.42 783.74,776.00 777.30,776.00 C768.59,776.00 766.51,776.29 765.50,777.66 C764.78,778.65 763.62,779.07 762.64,778.69 C761.15,778.12 761.00,773.11 761.00,722.07 C761.00,666.10 761.00,666.07 763.11,664.94 C766.43,663.16 791.80,664.06 793.02,666.00 C793.54,666.83 793.98,673.43 793.98,680.68 C794.00,695.08 794.34,695.82 800.00,693.70 C801.38,693.18 803.62,692.55 805.00,692.30 C809.47,691.48 825.21,691.93 826.40,692.92 C827.04,693.45 828.81,694.11 830.33,694.38 C834.30,695.10 846.35,707.60 848.90,713.64 C850.77,718.09 852.01,722.56 852.24,725.75 C852.29,726.44 852.65,727.00 853.04,727.00 C853.97,727.00 853.57,746.27 852.61,747.83 C852.20,748.49 851.65,750.22 851.38,751.67 C850.83,754.74 845.91,764.91 843.03,768.96 C840.68,772.26 826.36,779.98 822.03,780.29 C820.36,780.40 819.00,780.91 819.00,781.40 C819.00,781.90 818.16,781.34 817.13,780.15 C816.05,778.91 814.09,778.00 812.47,778.00 C810.93,778.00 809.95,778.28 810.29,778.62 C810.63,778.96 810.28,779.86 809.52,780.62 C807.98,782.16 807.00,782.39 807.00,781.22 ZM 196.00 781.06 C196.00,780.55 195.21,780.09 194.25,780.05 C185.97,779.69 179.36,777.85 175.52,774.84 C173.16,772.98 172.85,772.15 173.29,768.84 C173.58,766.73 173.40,765.00 172.90,765.00 C170.77,765.00 173.58,744.50 175.91,743.05 C177.06,742.34 184.95,743.97 188.67,745.69 C190.26,746.42 195.58,746.52 209.95,746.10 C215.98,745.92 209.39,742.70 198.50,740.50 C187.81,738.34 176.31,728.71 172.35,718.61 C169.84,712.20 169.39,709.00 171.00,709.00 C171.55,709.00 172.00,707.88 172.00,706.50 C172.00,705.12 171.50,704.00 170.89,704.00 C169.68,704.00 169.93,702.12 172.34,692.75 C175.78,679.37 190.40,669.40 207.25,668.92 C208.21,668.90 209.00,668.45 209.00,667.94 C209.00,667.42 211.25,667.00 214.00,667.00 C216.75,667.00 219.00,667.41 219.00,667.92 C219.00,668.43 221.02,668.70 223.50,668.54 C225.98,668.37 228.00,668.52 228.00,668.87 C228.00,669.21 229.42,669.60 231.14,669.72 C236.08,670.07 242.78,673.02 244.47,675.59 C246.15,678.16 246.53,682.00 245.09,682.00 C244.57,682.00 244.39,686.50 244.66,692.50 C244.99,699.62 244.80,703.00 244.07,703.00 C243.48,703.00 243.00,704.08 243.00,705.39 C243.00,706.71 242.29,708.06 241.42,708.39 C238.60,709.48 232.43,709.04 230.49,707.61 C229.06,706.57 226.25,706.35 219.05,706.74 C213.80,707.02 209.29,707.44 209.03,707.68 C208.20,708.44 211.39,709.95 215.00,710.52 C225.31,712.12 241.86,719.62 245.36,724.27 C248.02,727.80 251.34,736.65 250.51,737.99 C250.22,738.45 250.55,739.06 251.24,739.34 C252.24,739.74 252.24,739.86 251.25,739.92 C250.56,739.96 250.00,740.93 250.00,742.06 C250.00,743.19 249.55,743.84 249.00,743.50 C248.45,743.16 248.00,743.58 248.00,744.44 C248.00,745.30 248.40,746.00 248.89,746.00 C250.57,746.00 250.68,753.49 249.09,758.90 C248.03,762.49 246.16,765.68 243.50,768.42 C238.57,773.50 226.02,779.87 220.25,780.23 C217.91,780.38 216.00,780.84 216.00,781.25 C216.00,782.76 213.40,781.95 212.00,780.00 C210.89,778.46 209.41,778.00 205.61,778.00 C202.89,778.00 200.95,778.28 201.29,778.62 C202.17,779.51 199.43,782.00 197.57,782.00 C196.71,782.00 196.00,781.58 196.00,781.06 ZM 803.22 776.33 C808.88,778.33 819.35,778.25 825.19,776.17 C841.08,770.50 850.01,756.26 849.99,736.64 C849.96,714.44 840.95,701.02 822.98,696.42 C812.87,693.83 799.89,696.17 793.79,701.69 C792.08,703.24 792.00,702.54 792.00,685.65 L 792.00 668.00 L 765.00 668.00 L 765.00 776.06 L 777.75 775.78 L 790.50 775.50 L 790.81 771.75 C790.98,769.69 791.26,768.00 791.42,768.00 C791.59,768.00 793.35,769.53 795.33,771.41 C797.32,773.28 800.87,775.50 803.22,776.33 ZM 696.00 781.37 C696.00,780.85 694.63,780.32 692.95,780.19 C690.07,779.97 682.00,775.68 682.00,774.36 C682.00,774.03 682.79,774.36 683.75,775.11 C685.21,776.24 685.18,776.09 683.62,774.26 C682.58,773.04 681.27,772.33 680.71,772.68 C680.13,773.04 680.00,772.82 680.40,772.15 C680.80,771.52 680.67,771.00 680.12,771.00 C679.58,771.00 678.57,769.45 677.88,767.55 C677.20,765.66 676.27,764.33 675.82,764.61 C674.09,765.68 675.03,754.32 677.00,750.24 C678.10,747.96 679.00,745.66 679.00,745.13 C679.00,743.92 686.59,737.31 690.05,735.49 C694.28,733.27 704.76,730.00 707.72,729.97 C709.25,729.96 712.23,729.17 714.34,728.22 L 718.17 726.50 L 711.84 726.71 C704.26,726.96 695.96,728.42 692.96,730.02 C690.27,731.46 684.00,730.43 684.00,728.54 C684.00,727.78 683.44,726.94 682.75,726.66 C681.76,726.26 681.77,725.96 682.79,725.24 C683.75,724.57 683.82,723.65 683.07,721.68 C682.51,720.21 682.32,718.34 682.64,717.51 C682.95,716.68 682.76,716.00 682.21,716.00 C681.61,716.00 681.20,712.54 681.20,707.50 C681.20,699.39 681.65,697.99 684.50,697.32 C685.05,697.19 688.65,695.92 692.50,694.49 C698.48,692.27 701.39,691.85 712.50,691.62 C722.68,691.40 726.60,691.71 730.55,693.05 C736.70,695.13 743.85,698.66 746.37,700.87 C749.01,703.18 753.95,714.38 754.25,718.75 C754.29,719.44 754.64,720.00 755.02,720.00 C755.40,720.00 755.80,732.54 755.91,747.87 C756.08,772.15 755.91,775.95 754.53,777.33 C752.96,778.90 750.00,778.61 750.00,776.89 C750.00,776.40 745.15,776.00 739.22,776.00 C729.52,776.00 728.27,776.21 726.65,778.09 C725.00,780.02 724.72,780.06 723.10,778.59 C720.94,776.64 719.67,776.60 716.20,778.40 C714.72,779.16 712.38,779.95 711.00,780.15 C709.62,780.34 708.20,780.91 707.84,781.41 C707.48,781.92 706.49,781.64 705.64,780.78 C704.79,779.93 704.37,778.96 704.71,778.62 C705.05,778.28 704.07,778.00 702.53,778.00 C700.91,778.00 698.95,778.91 697.87,780.15 C696.84,781.34 696.00,781.88 696.00,781.37 ZM 191.50 776.97 C193.70,777.42 200.16,777.83 205.86,777.89 C222.86,778.07 232.88,774.49 240.91,765.37 C245.70,759.93 248.00,753.21 248.00,744.68 C248.00,728.48 240.69,721.24 218.50,715.44 C213.00,714.00 207.49,712.18 206.25,711.39 C203.15,709.41 203.31,705.64 206.55,704.16 C210.16,702.51 223.74,702.72 232.65,704.56 C236.81,705.42 240.32,705.98 240.47,705.81 C240.61,705.64 241.00,699.10 241.34,691.27 C241.38,690.42 241.41,689.62 241.45,688.86 C241.78,681.58 241.93,678.27 240.36,676.48 C238.88,674.80 235.89,674.46 230.12,673.43 C210.87,670.00 194.42,672.88 184.19,681.49 C177.48,687.14 173.49,701.14 175.25,712.85 C177.24,726.05 185.29,733.44 202.68,738.03 C214.91,741.26 219.00,742.96 218.98,744.83 C218.94,749.25 214.72,751.01 204.18,750.98 C197.61,750.97 192.72,750.21 180.38,747.31 C178.52,746.88 178.18,747.37 177.65,751.16 C177.32,753.55 176.96,759.33 176.85,764.00 L 176.66 772.50 L 182.08 774.33 C185.06,775.34 189.30,776.53 191.50,776.97 ZM 342.86 775.68 C355.15,779.87 370.34,778.23 380.89,771.57 C386.63,767.94 393.65,759.52 396.18,753.20 C398.09,748.43 398.47,745.62 398.48,736.00 C398.50,725.58 398.24,723.96 395.80,718.75 C387.93,701.94 369.78,692.84 350.15,695.84 C335.14,698.14 324.93,705.59 318.66,718.82 C315.71,725.06 315.50,726.22 315.50,736.50 C315.50,746.44 315.77,748.07 318.28,753.43 C323.68,764.97 331.08,771.67 342.86,775.68 ZM 691.50 776.17 C694.67,777.68 697.15,778.00 703.50,777.71 C711.94,777.33 717.71,775.20 721.40,771.11 C724.10,768.12 725.00,768.48 725.00,772.53 L 725.00 776.06 L 738.75 775.78 L 752.50 775.50 L 752.46 748.50 C752.42,715.59 751.77,712.37 743.65,704.46 C736.45,697.44 730.21,695.52 715.00,695.60 C703.44,695.67 693.95,697.43 687.72,700.65 C685.15,701.97 684.90,702.53 685.38,705.82 C685.67,707.84 686.19,713.82 686.53,719.10 L 687.16 728.69 L 693.83 726.25 C698.50,724.55 703.36,723.68 710.00,723.35 C720.39,722.84 724.50,724.02 724.50,727.52 C724.50,730.20 721.09,731.63 708.87,734.06 C692.49,737.32 685.62,741.22 681.91,749.39 C677.25,759.65 681.45,771.38 691.50,776.17 ZM 281.00 776.46 C285.64,777.91 302.07,778.30 307.50,777.10 C308.34,776.92 308.97,776.78 309.42,776.42 C310.77,775.33 310.51,772.26 309.50,759.99 L 309.49 759.97 L 308.87 752.44 L 302.17 752.82 C296.59,753.14 295.05,752.86 292.98,751.19 C290.62,749.28 290.48,748.54 290.00,736.12 L 289.50 723.06 L 308.50 722.50 L 309.06 697.07 L 299.42 696.79 L 289.77 696.50 L 289.64 687.50 L 289.50 678.50 L 278.43 678.22 L 267.36 677.94 L 265.93 687.22 L 264.50 696.50 L 257.75 696.80 L 251.00 697.09 L 251.00 723.00 L 262.84 723.00 L 263.18 740.75 C263.50,757.79 263.62,758.71 266.22,763.65 C269.49,769.87 274.93,774.58 281.00,776.46 ZM 406.20 777.80 C405.31,776.91 405.00,766.41 405.00,736.73 C405.00,694.78 405.08,694.00 409.43,694.00 C410.29,694.00 411.00,693.55 411.00,693.00 C411.00,692.40 415.17,692.00 421.50,692.00 C427.83,692.00 432.00,692.40 432.00,693.00 C432.00,693.55 432.67,694.00 433.50,694.00 C434.33,694.00 435.00,694.50 435.00,695.12 C435.00,695.82 436.02,696.00 437.75,695.61 C439.26,695.26 441.45,694.76 442.62,694.49 C443.78,694.23 446.29,693.36 448.18,692.57 C453.01,690.55 462.67,691.18 464.53,693.64 C466.08,695.69 466.50,701.64 465.13,702.17 C464.65,702.35 463.93,703.57 463.53,704.88 C463.02,706.51 463.13,707.04 463.89,706.57 C464.63,706.11 465.00,707.24 465.00,710.00 C465.00,712.45 464.60,713.87 464.01,713.51 C463.40,713.13 463.15,714.88 463.35,718.16 C463.62,722.56 463.30,723.79 461.38,725.71 C460.12,726.97 458.66,728.00 458.13,728.00 C457.60,728.00 456.94,728.56 456.66,729.25 C456.25,730.25 455.98,730.25 455.27,729.25 C454.57,728.26 453.97,728.31 452.44,729.47 C451.37,730.28 449.33,730.95 447.90,730.97 C443.64,731.02 438.43,738.87 439.59,743.49 C439.98,745.04 439.79,746.00 439.11,746.00 C438.34,746.00 438.00,750.93 438.00,761.89 C438.00,774.96 437.74,777.89 436.53,778.35 C435.72,778.66 434.40,778.26 433.60,777.46 C431.46,775.32 411.46,775.35 410.64,777.50 C409.95,779.31 407.85,779.45 406.20,777.80 ZM 409.00 697.00 L 409.00 776.06 L 422.25 775.78 L 435.50 775.50 L 436.00 756.50 C436.44,739.74 436.74,737.09 438.54,734.04 C441.28,729.36 445.63,727.03 453.18,726.20 L 459.49 725.50 L 460.13 720.00 C460.48,716.97 461.01,710.07 461.31,704.66 L 461.85 694.82 L 455.68 695.52 C447.65,696.42 440.55,699.49 437.48,703.39 L 435.02 706.50 L 435.01 701.75 L 435.00 697.00 ZM 605.22 776.98 C604.30,775.51 604.01,762.67 604.03,724.76 L 604.03 721.09 C604.06,679.47 604.06,673.77 606.87,671.43 C607.39,670.99 608.02,670.67 608.76,670.25 C611.64,668.62 633.93,668.55 637.45,670.16 L 640.00 671.32 L 640.00 745.00 L 656.39 745.00 C670.42,745.00 672.87,745.23 673.39,746.58 C673.53,746.93 673.65,748.20 673.75,750.04 L 655.78 749.77 L 637.50 749.50 L 636.98 674.00 L 609.00 674.00 L 609.00 776.03 L 673.50 775.50 L 673.78 762.77 L 673.94 755.35 C673.98,757.09 674.00,758.96 674.00,760.88 C674.00,769.02 674.41,774.01 675.13,774.73 C676.60,776.20 675.52,779.00 673.50,779.00 C672.64,779.00 671.68,778.33 671.36,777.50 C670.51,775.28 612.07,775.25 608.69,777.47 C606.65,778.80 606.33,778.76 605.22,776.98 ZM 537.21 776.00 L 546.00 776.00 L 546.04 759.75 C546.11,736.75 547.11,729.16 550.46,726.28 C552.37,724.64 554.37,724.00 557.62,724.00 C568.18,724.00 569.00,726.16 569.00,753.98 L 569.00 776.06 L 582.25 775.78 L 595.50 775.50 L 595.50 745.50 C595.50,716.08 595.45,715.40 593.13,710.26 C590.37,704.14 584.88,698.80 579.38,696.89 C577.25,696.14 572.12,695.54 568.00,695.55 C558.71,695.57 552.56,698.25 547.25,704.60 L 543.58 708.99 L 539.28 704.08 C533.73,697.73 528.12,695.48 518.00,695.56 C509.49,695.62 505.67,697.14 499.75,702.81 L 496.00 706.41 L 496.00 697.91 C496.74,698.35 498.38,697.65 502.62,695.32 C508.74,691.96 509.61,691.77 518.97,691.67 C527.01,691.59 529.22,691.89 530.76,693.28 C531.80,694.23 533.18,695.00 533.83,695.00 C534.47,695.00 536.68,696.51 538.75,698.35 C540.81,700.20 543.27,701.70 544.21,701.69 C545.14,701.68 545.72,701.35 545.48,700.97 C544.82,699.89 547.94,697.51 553.95,694.50 C561.48,690.72 573.52,690.53 581.28,694.06 C589.46,697.79 596.07,705.39 597.33,712.51 C597.62,714.16 598.45,717.00 599.18,718.84 C600.40,721.92 600.33,722.31 598.25,724.00 C596.03,725.79 596.00,726.17 596.00,748.95 C596.00,768.51 596.25,772.45 597.61,774.53 C599.09,776.79 599.09,777.03 597.54,777.62 C596.62,777.98 595.36,777.76 594.73,777.13 C593.23,775.63 571.00,775.57 571.00,777.07 C571.00,777.66 569.99,778.00 568.75,777.82 C566.51,777.50 566.50,777.41 566.23,756.75 C566.06,744.05 565.58,736.00 564.98,736.00 C564.44,736.00 564.00,734.94 564.00,733.65 C564.00,728.39 556.14,725.98 552.40,730.10 C550.69,732.00 550.45,734.39 550.00,754.07 C549.58,772.36 549.24,776.20 547.89,777.54 C546.43,779.00 546.14,779.00 544.71,777.57 C543.89,776.75 540.83,776.23 537.21,776.00 ZM 466.98 777.72 C466.97,777.05 466.98,758.57 467.00,736.66 C467.04,695.68 467.20,694.00 470.93,694.00 C471.52,694.00 472.00,693.55 472.00,693.00 C472.00,692.40 476.17,692.00 482.50,692.00 C488.83,692.00 493.00,692.40 493.00,693.00 C493.00,693.55 493.70,694.00 494.56,694.00 C495.42,694.00 495.87,694.41 495.56,694.91 C495.29,695.34 495.26,696.23 495.47,697.00 L 470.00 697.00 L 470.00 776.06 L 483.25 775.78 L 496.50 775.50 L 497.00 753.00 C497.61,725.42 498.17,724.00 508.38,724.00 C518.26,724.00 520.00,729.05 520.00,757.64 L 520.00 776.00 L 528.82 776.00 C525.42,776.22 522.65,776.72 522.00,777.50 C520.38,779.45 518.58,779.40 516.87,777.35 C515.84,776.11 515.38,770.32 515.00,753.95 C514.55,734.38 514.31,732.00 512.60,730.10 C510.19,727.45 504.29,727.24 502.39,729.75 C501.39,731.07 501.06,736.58 501.03,752.25 C501.01,764.41 500.61,773.00 500.07,773.00 C499.55,773.00 498.99,774.23 498.82,775.74 C498.45,778.91 495.20,780.11 493.80,777.60 C493.06,776.28 490.91,776.00 481.45,776.00 C475.15,776.00 470.00,776.40 470.00,776.89 C470.00,778.28 467.00,779.10 466.98,777.72 ZM 815.10 750.73 C810.76,753.63 803.77,753.77 799.30,751.04 C794.40,748.05 792.53,744.46 792.53,738.00 C792.53,734.27 793.14,731.44 794.32,729.63 C800.26,720.56 815.32,720.83 820.05,730.10 C823.82,737.49 821.71,746.32 815.10,750.73 ZM 365.06 750.30 C355.74,758.14 341.52,748.37 343.45,735.46 C345.51,721.74 363.52,718.12 369.06,730.32 C372.50,737.90 371.02,745.28 365.06,750.30 ZM 311.98 745.00 C311.59,744.17 311.47,742.94 311.72,742.25 C311.96,741.56 311.68,741.00 311.08,741.00 C310.45,741.00 310.00,738.92 310.00,736.00 C310.00,733.25 310.34,731.00 310.75,731.00 C311.16,731.00 311.62,729.20 311.77,727.00 C311.98,723.96 311.68,723.00 310.52,723.00 C309.69,723.00 309.00,723.45 309.00,724.00 C309.00,724.55 308.33,725.00 307.50,725.00 C306.67,725.00 306.00,725.43 306.00,725.95 C306.00,726.48 302.96,727.04 299.25,727.20 L 292.50 727.50 L 292.17 732.00 C291.79,737.25 293.80,747.76 295.37,748.73 C296.96,749.71 301.40,749.64 302.14,748.62 C302.49,748.13 304.71,748.35 307.14,749.12 C311.26,750.43 311.53,750.40 312.09,748.50 C312.42,747.40 312.37,745.83 311.98,745.00 ZM 813.56 746.22 C816.63,743.30 817.00,742.39 817.00,737.66 C817.00,730.58 813.70,727.12 806.70,726.85 C801.10,726.64 797.99,728.97 796.07,734.78 C794.61,739.24 796.13,743.00 801.01,747.00 C805.31,750.52 809.30,750.27 813.56,746.22 ZM 362.73 746.60 C365.97,743.55 366.31,742.73 366.15,738.43 C365.91,731.97 362.46,727.39 357.40,726.80 C353.25,726.31 349.91,728.96 347.40,734.72 C346.16,737.56 346.20,738.37 347.75,741.72 C350.07,746.74 351.52,748.13 355.32,749.04 C357.07,749.45 358.64,749.84 358.82,749.90 C358.99,749.95 360.75,748.47 362.73,746.60 ZM 721.92 758.41 C716.10,763.31 709.00,761.00 709.00,754.21 C709.00,750.77 710.25,749.77 717.30,747.56 C719.61,746.83 722.29,745.91 723.25,745.51 C724.79,744.87 725.00,745.44 725.00,750.30 C725.00,755.24 724.67,756.10 721.92,758.41 ZM 719.84 752.12 C719.51,750.02 719.44,750.02 716.09,751.74 C712.18,753.76 711.88,755.24 715.19,756.10 C718.06,756.85 720.28,754.95 719.84,752.12 ZM 178.92 730.25 L 176.50 727.50 L 179.25 729.92 C180.76,731.26 182.00,732.50 182.00,732.67 C182.00,733.46 181.19,732.82 178.92,730.25 Z" fill="rgb(1,1,1)"/>
<path d="M 191.50 776.97 C189.30,776.53 185.06,775.34 182.08,774.33 L 176.66 772.50 L 176.85 764.00 C176.96,759.33 177.32,753.55 177.65,751.16 C178.18,747.37 178.52,746.88 180.38,747.31 C192.72,750.21 197.61,750.97 204.18,750.98 C214.72,751.01 218.94,749.25 218.98,744.83 C219.00,742.96 214.91,741.26 202.68,738.03 C185.29,733.44 177.24,726.05 175.25,712.85 C173.49,701.14 177.48,687.14 184.19,681.49 C194.42,672.88 210.87,670.00 230.12,673.43 C242.70,675.67 242.06,674.66 241.34,691.27 C241.00,699.10 240.61,705.64 240.47,705.81 C240.32,705.98 236.81,705.42 232.65,704.56 C223.74,702.72 210.16,702.51 206.55,704.16 C203.31,705.64 203.15,709.41 206.25,711.39 C207.49,712.18 213.00,714.00 218.50,715.44 C240.69,721.24 248.00,728.48 248.00,744.68 C248.00,753.21 245.70,759.93 240.91,765.37 C232.88,774.49 222.86,778.07 205.86,777.89 C200.16,777.83 193.70,777.42 191.50,776.97 ZM 281.00 776.46 C274.93,774.58 269.49,769.87 266.22,763.65 C263.62,758.71 263.50,757.79 263.18,740.75 L 262.84 723.00 L 256.92 723.00 L 251.00 723.00 L 251.00 710.05 L 251.00 697.09 L 257.75 696.80 L 264.50 696.50 L 265.93 687.22 L 267.36 677.94 L 278.43 678.22 L 289.50 678.50 L 289.64 687.50 L 289.77 696.50 L 299.42 696.79 L 309.06 697.07 L 308.78 709.79 L 308.50 722.50 L 299.00 722.78 L 289.50 723.06 L 290.00 736.12 C290.48,748.54 290.62,749.28 292.98,751.19 C295.05,752.86 296.59,753.14 302.17,752.82 L 308.87 752.44 L 309.49 759.97 C310.85,776.37 310.85,776.36 307.50,777.10 C302.07,778.30 285.64,777.91 281.00,776.46 ZM 342.86 775.68 C331.08,771.67 323.68,764.97 318.28,753.43 C315.77,748.07 315.50,746.44 315.50,736.50 C315.50,726.22 315.71,725.06 318.66,718.82 C324.93,705.59 335.14,698.14 350.15,695.84 C369.78,692.84 387.93,701.94 395.80,718.75 C398.24,723.96 398.50,725.58 398.48,736.00 C398.47,745.62 398.09,748.43 396.18,753.20 C393.65,759.52 386.63,767.94 380.89,771.57 C370.34,778.23 355.15,779.87 342.86,775.68 ZM 365.06 750.30 C371.02,745.28 372.50,737.90 369.06,730.32 C363.52,718.12 345.51,721.74 343.45,735.46 C341.52,748.37 355.74,758.14 365.06,750.30 ZM 691.50 776.17 C681.45,771.38 677.25,759.65 681.91,749.39 C685.62,741.22 692.49,737.32 708.87,734.06 C721.09,731.63 724.50,730.20 724.50,727.52 C724.50,724.02 720.39,722.84 710.00,723.35 C703.36,723.68 698.50,724.55 693.83,726.25 L 687.16 728.69 L 686.53 719.10 C686.19,713.82 685.67,707.84 685.38,705.82 C684.90,702.53 685.15,701.97 687.72,700.65 C693.95,697.43 703.44,695.67 715.00,695.60 C730.21,695.52 736.45,697.44 743.65,704.46 C751.77,712.37 752.42,715.59 752.46,748.50 L 752.50 775.50 L 738.75 775.78 L 725.00 776.06 L 725.00 772.53 C725.00,768.48 724.10,768.12 721.40,771.11 C717.71,775.20 711.94,777.33 703.50,777.71 C697.15,778.00 694.67,777.68 691.50,776.17 ZM 721.92 758.41 C724.67,756.10 725.00,755.24 725.00,750.30 C725.00,745.44 724.79,744.87 723.25,745.51 C722.29,745.91 719.61,746.83 717.30,747.56 C710.25,749.77 709.00,750.77 709.00,754.21 C709.00,761.00 716.10,763.31 721.92,758.41 ZM 803.22 776.33 C800.87,775.50 797.32,773.28 795.33,771.41 C793.35,769.53 791.59,768.00 791.42,768.00 C791.26,768.00 790.98,769.69 790.81,771.75 L 790.50 775.50 L 777.75 775.78 L 765.00 776.06 L 765.00 722.03 L 765.00 668.00 L 778.50 668.00 L 792.00 668.00 L 792.00 685.65 C792.00,702.54 792.08,703.24 793.79,701.69 C799.89,696.17 812.87,693.83 822.98,696.42 C840.95,701.02 849.96,714.44 849.99,736.64 C850.01,756.26 841.08,770.50 825.19,776.17 C819.35,778.25 808.88,778.33 803.22,776.33 ZM 815.10 750.73 C821.71,746.32 823.82,737.49 820.05,730.10 C815.32,720.83 800.26,720.56 794.32,729.63 C793.14,731.44 792.53,734.27 792.53,738.00 C792.53,744.46 794.40,748.05 799.30,751.04 C803.77,753.77 810.76,753.63 815.10,750.73 ZM 409.00 736.53 L 409.00 697.00 L 422.00 697.00 L 435.00 697.00 L 435.01 701.75 L 435.02 706.50 L 437.48 703.39 C440.55,699.49 447.65,696.42 455.68,695.52 L 461.85 694.82 L 461.31 704.66 C461.01,710.07 460.48,716.97 460.13,720.00 L 459.49 725.50 L 453.18 726.20 C445.63,727.03 441.28,729.36 438.54,734.04 C436.74,737.09 436.44,739.74 436.00,756.50 L 435.50 775.50 L 422.25 775.78 L 409.00 776.06 L 409.00 736.53 ZM 470.00 736.53 L 470.00 697.00 L 483.00 697.00 L 496.00 697.00 L 496.00 701.70 L 496.00 706.41 L 499.75 702.81 C505.67,697.14 509.49,695.62 518.00,695.56 C528.12,695.48 533.73,697.73 539.28,704.08 L 543.58 708.99 L 547.25 704.60 C552.56,698.25 558.71,695.57 568.00,695.55 C572.12,695.54 577.25,696.14 579.38,696.89 C584.88,698.80 590.37,704.14 593.13,710.26 C595.45,715.40 595.50,716.08 595.50,745.50 L 595.50 775.50 L 582.25 775.78 L 569.00 776.06 L 569.00 753.98 C569.00,726.16 568.18,724.00 557.62,724.00 C554.37,724.00 552.37,724.64 550.46,726.28 C547.11,729.16 546.11,736.75 546.04,759.75 L 546.00 776.00 L 533.00 776.00 L 520.00 776.00 L 520.00 757.64 C520.00,729.05 518.26,724.00 508.38,724.00 C498.17,724.00 497.61,725.42 497.00,753.00 L 496.50 775.50 L 483.25 775.78 L 470.00 776.06 L 470.00 736.53 ZM 609.00 725.01 L 609.00 674.00 L 622.99 674.00 L 636.98 674.00 L 637.24 711.75 L 637.50 749.50 L 655.78 749.77 L 674.06 750.05 L 673.78 762.77 L 673.50 775.50 L 641.25 775.76 L 609.00 776.03 L 609.00 725.01 ZM 525.94 610.94 C508.10,598.81 492.04,587.34 490.25,585.46 C484.44,579.32 484.86,578.19 503.36,550.76 C512.36,537.42 561.43,464.62 612.40,389.00 C663.38,313.38 706.21,250.49 707.60,249.25 C709.38,247.66 711.36,247.00 714.39,247.00 C718.33,247.00 721.41,248.86 752.84,270.25 C789.01,294.86 791.05,296.68 789.51,302.83 C789.14,304.30 785.34,310.67 781.06,317.00 C705.82,428.28 634.00,535.23 634.00,535.98 C634.00,537.48 649.11,547.30 649.97,546.35 C650.39,545.88 670.89,515.58 695.53,479.00 C720.16,442.42 741.04,411.95 741.91,411.28 C744.46,409.32 749.92,408.64 752.74,409.93 C756.37,411.58 816.91,452.74 820.24,455.82 C823.73,459.05 824.68,463.79 822.62,467.78 C819.60,473.62 714.79,628.53 712.35,630.75 C707.82,634.89 703.40,633.92 692.28,626.35 C686.90,622.69 666.45,608.74 646.83,595.35 C627.22,581.96 610.79,571.02 610.33,571.04 C609.87,571.07 600.72,584.17 590.00,600.16 C579.28,616.15 569.43,630.08 568.12,631.12 C562.55,635.51 560.92,634.73 525.94,610.94 ZM 265.88 627.16 C247.66,615.21 206.24,586.59 203.75,584.23 C201.52,582.12 201.00,580.76 201.02,577.06 C201.04,572.71 203.08,569.47 244.53,508.05 C268.45,472.60 288.99,442.57 290.17,441.32 C293.07,438.23 298.37,437.33 302.39,439.25 C307.13,441.51 366.03,481.79 369.50,485.14 C371.91,487.47 372.50,488.87 372.49,492.27 C372.48,496.04 371.02,498.65 359.09,516.27 C351.73,527.15 345.89,536.19 346.10,536.37 C346.32,536.55 349.93,538.99 354.11,541.79 L 361.73 546.88 L 407.51 479.03 C436.91,435.46 454.14,410.80 455.69,410.10 C460.43,407.93 464.57,408.79 471.19,413.31 C474.66,415.68 490.15,426.25 505.62,436.79 C535.33,457.04 536.94,458.55 535.66,464.94 C535.03,468.12 430.69,623.60 425.92,628.48 C419.93,634.60 420.48,634.87 370.71,600.98 C346.10,584.21 325.18,570.50 324.23,570.50 C323.08,570.50 316.09,580.02 303.32,599.00 C284.38,627.14 280.28,632.00 275.48,632.00 C274.26,632.00 269.94,629.82 265.88,627.16 ZM 382.13 468.92 C377.08,466.91 313.09,422.43 311.58,419.86 C308.21,414.16 308.90,412.71 329.75,381.77 C418.15,250.57 419.12,249.17 422.59,247.52 C425.13,246.32 426.83,246.14 429.25,246.81 C431.04,247.31 452.38,261.28 476.67,277.86 C500.97,294.44 521.30,308.00 521.86,308.00 C522.42,308.00 531.28,295.51 541.56,280.25 C551.83,264.99 561.39,251.26 562.81,249.75 C564.97,247.43 566.17,247.01 570.44,247.05 C575.38,247.09 576.33,247.66 609.50,270.36 C640.47,291.55 643.61,293.96 644.74,297.37 C645.75,300.41 645.73,301.70 644.63,304.30 C642.60,309.11 558.23,434.08 554.88,437.25 C548.94,442.86 548.04,442.46 511.96,417.93 C494.11,405.78 478.04,394.32 476.25,392.44 C470.53,386.44 471.10,384.76 486.59,361.83 C494.06,350.77 499.75,341.45 499.24,341.11 C498.72,340.78 495.33,338.54 491.69,336.16 C488.05,333.77 484.61,331.97 484.05,332.16 C483.48,332.34 462.84,362.40 438.18,398.95 C413.52,435.50 392.25,466.18 390.92,467.12 C387.59,469.48 384.93,470.02 382.13,468.92 Z" fill="rgb(254,254,254)"/>
</g>
</svg>